<mxfile modified="2023-01-23T13:10:54.599Z" host="app.diagrams.net" agent="5.0 (Windows NT 10.0; Win64; x64) AppleWebKit/537.36 (KHTML, like Gecko) Chrome/109.0.0.0 Safari/537.36" etag="oajkWAA1IMiiwKHgGxan" version="20.8.10" type="github">
  <diagram id="WI9T0HZ2pTsCkuznbFz-" name="Page-1">
    <mxGraphModel dx="1434" dy="764" grid="1" gridSize="10" guides="1" tooltips="1" connect="1" arrows="1" fold="1" page="1" pageScale="1" pageWidth="1169" pageHeight="827" math="0" shadow="0">
      <root>
        <mxCell id="0" />
        <mxCell id="1" parent="0" />
        <mxCell id="VH2hPDSzOGtYescyWvBb-28" value="" style="edgeStyle=elbowEdgeStyle;rounded=0;orthogonalLoop=1;jettySize=auto;html=1;fillColor=#dae8fc;strokeColor=#6c8ebf;" parent="1" source="VH2hPDSzOGtYescyWvBb-3" edge="1">
          <mxGeometry relative="1" as="geometry">
            <mxPoint x="270" y="400" as="targetPoint" />
          </mxGeometry>
        </mxCell>
        <mxCell id="VH2hPDSzOGtYescyWvBb-3" value="User" style="sketch=0;outlineConnect=0;fontColor=#232F3E;gradientColor=none;strokeColor=#232F3E;fillColor=#ffffff;dashed=0;verticalLabelPosition=bottom;verticalAlign=top;align=center;html=1;fontSize=12;fontStyle=0;aspect=fixed;shape=mxgraph.aws4.resourceIcon;resIcon=mxgraph.aws4.user;" parent="1" vertex="1">
          <mxGeometry x="40" y="370" width="60" height="60" as="geometry" />
        </mxCell>
        <mxCell id="1m1OT-jHCipNJAFshmgm-4" style="edgeStyle=orthogonalEdgeStyle;rounded=0;orthogonalLoop=1;jettySize=auto;html=1;fontSize=12;" edge="1" parent="1" source="VH2hPDSzOGtYescyWvBb-4">
          <mxGeometry relative="1" as="geometry">
            <mxPoint x="520" y="390" as="targetPoint" />
            <Array as="points">
              <mxPoint x="1000" y="430" />
              <mxPoint x="520" y="430" />
              <mxPoint x="520" y="400" />
            </Array>
          </mxGeometry>
        </mxCell>
        <mxCell id="1m1OT-jHCipNJAFshmgm-5" value="user click data" style="edgeLabel;html=1;align=center;verticalAlign=middle;resizable=0;points=[];fontSize=12;" vertex="1" connectable="0" parent="1m1OT-jHCipNJAFshmgm-4">
          <mxGeometry x="0.0462" relative="1" as="geometry">
            <mxPoint as="offset" />
          </mxGeometry>
        </mxCell>
        <mxCell id="VH2hPDSzOGtYescyWvBb-4" value="Article app" style="shape=image;verticalLabelPosition=bottom;labelBackgroundColor=#ffffff;verticalAlign=top;aspect=fixed;imageAspect=0;image=data:image/svg+xml,PHN2ZyB4bWxuczpjYz0iaHR0cDovL2NyZWF0aXZlY29tbW9ucy5vcmcvbnMjIiB4bWxuczpkYz0iaHR0cDovL3B1cmwub3JnL2RjL2VsZW1lbnRzLzEuMS8iIHhtbG5zOmlua3NjYXBlPSJodHRwOi8vd3d3Lmlua3NjYXBlLm9yZy9uYW1lc3BhY2VzL2lua3NjYXBlIiB4bWxuczpyZGY9Imh0dHA6Ly93d3cudzMub3JnLzE5OTkvMDIvMjItcmRmLXN5bnRheC1ucyMiIHhtbG5zOnNvZGlwb2RpPSJodHRwOi8vc29kaXBvZGkuc291cmNlZm9yZ2UubmV0L0RURC9zb2RpcG9kaS0wLmR0ZCIgeG1sbnM6c3ZnPSJodHRwOi8vd3d3LnczLm9yZy8yMDAwL3N2ZyIgeG1sbnM9Imh0dHA6Ly93d3cudzMub3JnLzIwMDAvc3ZnIiB4bWxuczp4bGluaz0iaHR0cDovL3d3dy53My5vcmcvMTk5OS94bGluayIgdmVyc2lvbj0iMS4xIiBpZD0ic3ZnMTE1MTUxIiBpbmtzY2FwZTp2ZXJzaW9uPSIwLjkyLjMgKDI0MDU1NDYsIDIwMTgtMDMtMTEpIiBzb2RpcG9kaTpkb2NuYW1lPSJ3ZWJzaXRlLnN2ZyIgeD0iMHB4IiB5PSIwcHgiIHZpZXdCb3g9IjAgMCA5NS4yNSA3Mi42NCIgc3R5bGU9ImVuYWJsZS1iYWNrZ3JvdW5kOm5ldyAwIDAgOTUuMjUgNzIuNjQ7IiB4bWw6c3BhY2U9InByZXNlcnZlIj4mI3hhOzxzb2RpcG9kaTpuYW1lZHZpZXcgYm9yZGVyY29sb3I9IiM2NjY2NjYiIGJvcmRlcm9wYWNpdHk9IjEiIGZpdC1tYXJnaW4tYm90dG9tPSIwIiBmaXQtbWFyZ2luLWxlZnQ9IjAiIGZpdC1tYXJnaW4tcmlnaHQ9IjAiIGZpdC1tYXJnaW4tdG9wPSIwIiBncmlkdG9sZXJhbmNlPSIxMCIgZ3VpZGV0b2xlcmFuY2U9IjEwIiBpZD0ibmFtZWR2aWV3MTE1MTUzIiBpbmtzY2FwZTpjdXJyZW50LWxheWVyPSJzdmcxMTUxNTEiIGlua3NjYXBlOmN4PSI2My41IiBpbmtzY2FwZTpjeT0iNDguNDI1MzAzIiBpbmtzY2FwZTpwYWdlb3BhY2l0eT0iMCIgaW5rc2NhcGU6cGFnZXNoYWRvdz0iMiIgaW5rc2NhcGU6d2luZG93LWhlaWdodD0iMTAxNyIgaW5rc2NhcGU6d2luZG93LW1heGltaXplZD0iMSIgaW5rc2NhcGU6d2luZG93LXdpZHRoPSIxOTIwIiBpbmtzY2FwZTp3aW5kb3cteD0iLTgiIGlua3NjYXBlOndpbmRvdy15PSItOCIgaW5rc2NhcGU6em9vbT0iOC43NzA3NTgxIiBvYmplY3R0b2xlcmFuY2U9IjEwIiBwYWdlY29sb3I9IiNmZmZmZmYiIHNob3dncmlkPSJmYWxzZSI+JiN4YTsJPC9zb2RpcG9kaTpuYW1lZHZpZXc+JiN4YTs8ZyBpZD0iZzExNTE0OSIgdHJhbnNmb3JtPSJ0cmFuc2xhdGUoLTAuNzUsLTAuNzQ1NTUxNDcpIj4mI3hhOwk8dGl0bGUgaWQ9InRpdGxlMTE0ODExIj5QYWdlLTE8L3RpdGxlPiYjeGE7CTxnIGlkPSJncm91cDczNzQtMSIgdHJhbnNmb3JtPSJ0cmFuc2xhdGUoMC43NSwtMC43NSkiPiYjeGE7CQk8dGl0bGUgaWQ9InRpdGxlMTE0ODEzIj5XZWJzaXRlPC90aXRsZT4mI3hhOwkJPGcgaWQ9InNoYXBlNzM3NS0yIiB0cmFuc2Zvcm09InRyYW5zbGF0ZSg0My44MzUzLC01NS40NDI3KSI+JiN4YTsJCQk8dGl0bGUgaWQ9InRpdGxlMTE0ODE1Ij5TaGVldC43Mzc1PC90aXRsZT4mI3hhOwkJCTxwYXRoIGlkPSJwYXRoMTE0ODE3IiBpbmtzY2FwZTpjb25uZWN0b3ItY3VydmF0dXJlPSIwIiBzdHlsZT0iZmlsbDojQkZFNUU4OyIgZD0iTTIuNjQsNjguODZjMS40NiwwLDIuNjQsMS4xOCwyLjY0LDIuNjQgICAgIHMtMS4xOCwyLjY0LTIuNjQsMi42NFMwLDcyLjk2LDAsNzEuNVMxLjE4LDY4Ljg2LDIuNjQsNjguODZ6Ii8+JiN4YTsJCTwvZz4mI3hhOwkJPGcgaWQ9InNoYXBlNzM3Ni00IiB0cmFuc2Zvcm09InRyYW5zbGF0ZSgzMS4wMDA3LC0yLjQxMzgzKSI+JiN4YTsJCQk8dGl0bGUgaWQ9InRpdGxlMTE0ODIwIj5TaGVldC43Mzc2PC90aXRsZT4mI3hhOwkJCTxwYXRoIGlkPSJwYXRoMTE0ODIyIiBpbmtzY2FwZTpjb25uZWN0b3ItY3VydmF0dXJlPSIwIiBzdHlsZT0iZmlsbDojQTdBOUFDOyIgZD0iTTI2LjU0LDY0LjAySDE2LjQ3SDYuMzkgICAgIGMwLDAsMS44NCw5LjE3LTYuMzksMTAuMTJoMTYuNDdoMTYuNDZDMjQuNyw3My4xOSwyNi41NCw2NC4wMiwyNi41NCw2NC4wMnoiLz4mI3hhOwkJPC9nPiYjeGE7CQk8ZyBpZD0ic2hhcGU3Mzc3LTYiIHRyYW5zZm9ybT0idHJhbnNsYXRlKDI5LjM3NTQpIj4mI3hhOwkJCTx0aXRsZSBpZD0idGl0bGUxMTQ4MjUiPlNoZWV0LjczNzc8L3RpdGxlPiYjeGE7CQkJPHJlY3QgaWQ9InJlY3QxMTQ4MjciIHg9IjAiIHk9IjcxLjcyIiBzdHlsZT0iZmlsbDojQkZCRkJGOyIgd2lkdGg9IjM2LjE5IiBoZWlnaHQ9IjIuNDEiLz4mI3hhOwkJPC9nPiYjeGE7CQk8ZyBpZD0ic2hhcGU3Mzc4LTgiIHRyYW5zZm9ybT0idHJhbnNsYXRlKDAsLTE1Ljk3NDYpIj4mI3hhOwkJCTx0aXRsZSBpZD0idGl0bGUxMTQ4MzAiPlNoZWV0LjczNzg8L3RpdGxlPiYjeGE7CQkJPHBhdGggaWQ9InBhdGgxMTQ4MzIiIGlua3NjYXBlOmNvbm5lY3Rvci1jdXJ2YXR1cmU9IjAiIHN0eWxlPSJmaWxsOiMwQzJGNEY7IiBkPSJNOTUuMjUsNzIuMThjMCwxLjA4LTAuOTQsMS45Ni0yLjExLDEuOTZIMi4xMSAgICAgQzAuOTQsNzQuMTQsMCw3My4yNiwwLDcyLjE4VjE5LjQzYzAtMS4wOCwwLjk0LTEuOTYsMi4xMS0xLjk2aDkxLjAzYzEuMTcsMCwyLjExLDAuODgsMi4xMSwxLjk2VjcyLjE4eiIvPiYjeGE7CQk8L2c+JiN4YTsJCTxnIGlkPSJzaGFwZTczNzktMTAiIHRyYW5zZm9ybT0idHJhbnNsYXRlKDIuMTA2MzUsLTIxLjEwNikiPiYjeGE7CQkJPHRpdGxlIGlkPSJ0aXRsZTExNDgzNSI+U2hlZXQuNzM3OTwvdGl0bGU+JiN4YTsJCQk8cmVjdCBpZD0icmVjdDExNDgzNyIgeD0iMCIgeT0iMjQuODQiIHN0eWxlPSJmaWxsOiMwMEFFRUY7IiB3aWR0aD0iOTAuNzIiIGhlaWdodD0iNDkuMjkiLz4mI3hhOwkJPC9nPiYjeGE7CQk8ZyBpZD0ic2hhcGU3MzgwLTEyIiB0cmFuc2Zvcm09InRyYW5zbGF0ZSgwLC0xMS45NjQzKSI+JiN4YTsJCQk8dGl0bGUgaWQ9InRpdGxlMTE0ODQwIj5TaGVldC43MzgwPC90aXRsZT4mI3hhOwkJCTxwYXRoIGlkPSJwYXRoMTE0ODQyIiBpbmtzY2FwZTpjb25uZWN0b3ItY3VydmF0dXJlPSIwIiBzdHlsZT0iZmlsbDojQkZCRkJGOyIgZD0iTTAsNjcuNDN2NC42OGMwLDEuMTIsMC45NCwyLjAzLDIuMTEsMi4wMyAgICAgaDkxLjAzYzEuMTcsMCwyLjExLTAuOTEsMi4xMS0yLjAzdi00LjY4SDB6Ii8+JiN4YTsJCTwvZz4mI3hhOwkJPGcgaWQ9Imdyb3VwNzM4MS0xNCIgdHJhbnNmb3JtPSJ0cmFuc2xhdGUoODYuMzM3LC0xMy43MzU2KSI+JiN4YTsJCQk8dGl0bGUgaWQ9InRpdGxlMTE0ODQ1Ij5TaGVldC43MzgxPC90aXRsZT4mI3hhOwkJCTxnIGlkPSJzaGFwZTczODItMTUiIHRyYW5zZm9ybT0idHJhbnNsYXRlKDEuMzg0ODUsLTEuMzU3OTQpIj4mI3hhOwkJCQk8dGl0bGUgaWQ9InRpdGxlMTE0ODQ3Ij5TaGVldC43MzgyPC90aXRsZT4mI3hhOwkJCQk8cGF0aCBpZD0icGF0aDExNDg0OSIgaW5rc2NhcGU6Y29ubmVjdG9yLWN1cnZhdHVyZT0iMCIgc3R5bGU9ImZpbGw6IzAwQUVFRjtmaWxsLW9wYWNpdHk6MC42OyIgZD0iTTAuMjgsNzQuMTQgICAgICBDMC4xMyw3NC4xNCwwLDc0LDAsNzMuODN2LTEuNTJjMC0wLjE2LDAuMTMtMC4zLDAuMjgtMC4zYzAuMTYsMCwwLjI5LDAuMTQsMC4yOSwwLjN2MS41MkMwLjU3LDc0LDAuNDQsNzQuMTQsMC4yOCw3NC4xNHoiLz4mI3hhOwkJCTwvZz4mI3hhOwkJCTxnIGlkPSJzaGFwZTczODMtMTciPiYjeGE7CQkJCTx0aXRsZSBpZD0idGl0bGUxMTQ4NTIiPlNoZWV0LjczODM8L3RpdGxlPiYjeGE7CQkJCTxwYXRoIGlkPSJwYXRoMTE0ODU0IiBpbmtzY2FwZTpjb25uZWN0b3ItY3VydmF0dXJlPSIwIiBzdHlsZT0iZmlsbDojMDBBRUVGO2ZpbGwtb3BhY2l0eTowLjY7IiBkPSJNMS42Nyw3NC4xNCAgICAgIEMwLjc1LDc0LjE0LDAsNzMuMzksMCw3Mi40N2MwLTAuNDksMC4yMi0wLjk2LDAuNTktMS4yOGMwLjExLTAuMDksMC4yNy0wLjA3LDAuMzYsMC4wM2MwLjA4LDAuMTEsMC4wNywwLjI2LTAuMDQsMC4zNSAgICAgIGMtMC4yNiwwLjIzLTAuNDEsMC41NS0wLjQxLDAuOWMwLDAuNjUsMC41MiwxLjE3LDEuMTcsMS4xN2MwLjY0LDAsMS4xNy0wLjUyLDEuMTctMS4xN2MwLTAuMzUtMC4xNS0wLjY3LTAuNDItMC45ICAgICAgYy0wLjEtMC4wOS0wLjEyLTAuMjQtMC4wMy0wLjM1YzAuMDktMC4xLDAuMjUtMC4xMiwwLjM1LTAuMDNjMC4zOCwwLjMyLDAuNiwwLjc5LDAuNiwxLjI4QzMuMzQsNzMuMzksMi41OSw3NC4xNCwxLjY3LDc0LjE0eiIvPiYjeGE7CQkJPC9nPiYjeGE7CQk8L2c+JiN4YTsJCTxnIGlkPSJzaGFwZTczODQtMTkiIHRyYW5zZm9ybT0idHJhbnNsYXRlKDEyLjM1NDksLTI3LjQ4OCkiPiYjeGE7CQkJPHRpdGxlIGlkPSJ0aXRsZTExNDg1OCI+U2hlZXQuNzM4NDwvdGl0bGU+JiN4YTsJCQk8cGF0aCBpZD0icGF0aDExNDg2MCIgaW5rc2NhcGU6Y29ubmVjdG9yLWN1cnZhdHVyZT0iMCIgc3R5bGU9ImZpbGw6I0QxRDNENDsiIGQ9Ik02OC40Myw3Mi43M2MwLDAuNzgtMC42OCwxLjQxLTEuNTIsMS40MUgxLjUxICAgICBDMC42OCw3NC4xNCwwLDczLjUxLDAsNzIuNzNWMzQuODRjMC0wLjc4LDAuNjgtMS40MSwxLjUxLTEuNDFoNjUuNGMwLjg0LDAsMS41MiwwLjYzLDEuNTIsMS40MVY3Mi43M3oiLz4mI3hhOwkJPC9nPiYjeGE7CQk8ZyBpZD0ic2hhcGU3Mzg1LTIxIiB0cmFuc2Zvcm09InRyYW5zbGF0ZSgxNy4zNDAxLC02My4zMjc2KSI+JiN4YTsJCQk8dGl0bGUgaWQ9InRpdGxlMTE0ODYzIj5TaGVldC43Mzg1PC90aXRsZT4mI3hhOwkJCTxwYXRoIGlkPSJwYXRoMTE0ODY1IiBpbmtzY2FwZTpjb25uZWN0b3ItY3VydmF0dXJlPSIwIiBzdHlsZT0iZmlsbDojNTg1OTVCOyIgZD0iTTEuMzksNzMuNTd2MC4yOEgwLjUxbDAuMjksMC4yOUgwLjQzTDAsNzMuNzEgICAgIGwwLjQzLTAuNDJIMC44bC0wLjI5LDAuMjhIMS4zOXoiLz4mI3hhOwkJPC9nPiYjeGE7CQk8ZyBpZD0ic2hhcGU3Mzg2LTIzIiB0cmFuc2Zvcm09InRyYW5zbGF0ZSgxOS42NDI4LC02My4zMjc2KSI+JiN4YTsJCQk8dGl0bGUgaWQ9InRpdGxlMTE0ODY4Ij5TaGVldC43Mzg2PC90aXRsZT4mI3hhOwkJCTxwYXRoIGlkPSJwYXRoMTE0ODcwIiBpbmtzY2FwZTpjb25uZWN0b3ItY3VydmF0dXJlPSIwIiBzdHlsZT0iZmlsbDojOTM5NTk4OyIgZD0iTTAsNzMuNTd2MC4yOGgwLjg4bC0wLjI5LDAuMjloMC4zOGwwLjQyLTAuNDMgICAgIGwtMC40Mi0wLjQySDAuNTlsMC4yOSwwLjI4SDB6Ii8+JiN4YTsJCTwvZz4mI3hhOwkJPGcgaWQ9InNoYXBlNzM4Ny0yNSIgdHJhbnNmb3JtPSJ0cmFuc2xhdGUoMjEuOTM1NiwtNjMuMDYxMSkiPiYjeGE7CQkJPHRpdGxlIGlkPSJ0aXRsZTExNDg3MyI+U2hlZXQuNzM4NzwvdGl0bGU+JiN4YTsJCQk8cGF0aCBpZD0icGF0aDExNDg3NSIgaW5rc2NhcGU6Y29ubmVjdG9yLWN1cnZhdHVyZT0iMCIgc3R5bGU9ImZpbGw6IzU4NTk1QjsiIGQ9Ik0wLjU5LDcyLjg2YzAuMTYsMCwwLjMyLDAuMDcsMC40MiwwLjE4di0wLjI5ICAgICBsMC4xNiwwLjE2djAuNDNIMC43NWwtMC4xNi0wLjE2aDAuMjljLTAuMDctMC4wOC0wLjE4LTAuMTMtMC4yOS0wLjEzYy0wLjIxLDAtMC4zNywwLjE1LTAuNCwwLjM0SDAgICAgIEMwLjAzLDczLjA5LDAuMjgsNzIuODYsMC41OSw3Mi44NnogTTAuNTksNzMuODVjMC4yLDAsMC4zNy0wLjE2LDAuMzktMC4zNWgwLjE5Yy0wLjAzLDAuMy0wLjI4LDAuNTMtMC41OCwwLjUzICAgICBjLTAuMTcsMC0wLjMyLTAuMDctMC40My0wLjE4djAuMjlMMCw3My45OHYtMC40M2gwLjQzbDAuMTYsMC4xNmgtMC4zQzAuMzYsNzMuNzksMC40Nyw3My44NSwwLjU5LDczLjg1eiIvPiYjeGE7CQk8L2c+JiN4YTsJCTxnIGlkPSJzaGFwZTczODgtMjciIHRyYW5zZm9ybT0idHJhbnNsYXRlKDU5LjYyNDgsLTYyLjEyNTIpIj4mI3hhOwkJCTx0aXRsZSBpZD0idGl0bGUxMTQ4NzgiPlNoZWV0LjczODg8L3RpdGxlPiYjeGE7CQkJPHBhdGggaWQ9InBhdGgxMTQ4ODAiIGlua3NjYXBlOmNvbm5lY3Rvci1jdXJ2YXR1cmU9IjAiIHN0eWxlPSJmaWxsOiNBN0E5QUM7IiBkPSJNMC42NCw3MC44OGgxNy40NGMwLjM1LDAsMC42NCwwLjE3LDAuNjQsMC4zOCAgICAgdjIuNWMwLDAuMjEtMC4yOSwwLjM4LTAuNjQsMC4zOEgwLjY0QzAuMjksNzQuMTQsMCw3My45NywwLDczLjc2di0yLjVDMCw3MS4wNSwwLjI5LDcwLjg4LDAuNjQsNzAuODh6Ii8+JiN4YTsJCTwvZz4mI3hhOwkJPGcgaWQ9InNoYXBlNzM4OS0yOSIgdHJhbnNmb3JtPSJ0cmFuc2xhdGUoNTkuNjI0OCwtNjIuMjcyNSkiPiYjeGE7CQkJPHRpdGxlIGlkPSJ0aXRsZTExNDg4MyI+U2hlZXQuNzM4OTwvdGl0bGU+JiN4YTsJCQk8cGF0aCBpZD0icGF0aDExNDg4NSIgaW5rc2NhcGU6Y29ubmVjdG9yLWN1cnZhdHVyZT0iMCIgc3R5bGU9ImZpbGw6I0ZGRkZGRjsiIGQ9Ik0wLjY0LDcxLjAzaDE3LjMxYzAuMzUsMCwwLjY0LDAuMTYsMC42NCwwLjM2ICAgICB2Mi4zOWMwLDAuMi0wLjI5LDAuMzYtMC42NCwwLjM2SDAuNjRDMC4yOSw3NC4xNCwwLDczLjk4LDAsNzMuNzh2LTIuMzlDMCw3MS4xOSwwLjI5LDcxLjAzLDAuNjQsNzEuMDN6Ii8+JiN4YTsJCTwvZz4mI3hhOwkJPGcgaWQ9InNoYXBlNzM5MC0zMSIgdHJhbnNmb3JtPSJ0cmFuc2xhdGUoNzUuNjc0NywtNjMuMzc1NSkiPiYjeGE7CQkJPHRpdGxlIGlkPSJ0aXRsZTExNDg4OCI+U2hlZXQuNzM5MDwvdGl0bGU+JiN4YTsJCQk8Y2lyY2xlIGlkPSJlbGxpcHNlMTE0ODkwIiBzdHlsZT0iZmlsbDojQTdBOUFDOyIgY3g9IjAuNjIiIGN5PSI3My41MiIgcj0iMC42MiIvPiYjeGE7CQk8L2c+JiN4YTsJCTxnIGlkPSJzaGFwZTczOTEtMzMiIHRyYW5zZm9ybT0idHJhbnNsYXRlKDc1Ljc5NCwtNjMuNTA5KSI+JiN4YTsJCQk8dGl0bGUgaWQ9InRpdGxlMTE0ODkzIj5TaGVldC43MzkxPC90aXRsZT4mI3hhOwkJCTxjaXJjbGUgaWQ9ImVsbGlwc2UxMTQ4OTUiIHN0eWxlPSJmaWxsOiNGRkZGRkY7IiBjeD0iMC41IiBjeT0iNzMuNjQiIHI9IjAuNSIvPiYjeGE7CQk8L2c+JiN4YTsJCTxnIGlkPSJzaGFwZTczOTItMzUiIHRyYW5zZm9ybT0icm90YXRlKC00NC44NzA0LC0zNy41MTUxMjUsLTUwLjg4MDUyMykiPiYjeGE7CQkJPHRpdGxlIGlkPSJ0aXRsZTExNDg5OCI+U2hlZXQuNzM5MjwvdGl0bGU+JiN4YTsJCQkmI3hhOwkJCQk8cmVjdCBpZD0icmVjdDExNDkwMCIgeD0iMCIgeT0iNzMuMjIiIHRyYW5zZm9ybT0ibWF0cml4KC0xIDEuOTI1NTQzZS0wNiAtMS45MjU1NDNlLTA2IC0xIDAuMTY4NyAxNDcuMzU5KSIgc3R5bGU9ImZpbGw6I0E3QTlBQzsiIHdpZHRoPSIwLjE3IiBoZWlnaHQ9IjAuOTIiLz4mI3hhOwkJPC9nPiYjeGE7CQk8ZyBpZD0ic2hhcGU3MzkzLTM3IiB0cmFuc2Zvcm09InRyYW5zbGF0ZSgyNS41OTgsLTYyLjA0NzcpIj4mI3hhOwkJCTx0aXRsZSBpZD0idGl0bGUxMTQ5MDMiPlNoZWV0LjczOTM8L3RpdGxlPiYjeGE7CQkJPHBhdGggaWQ9InBhdGgxMTQ5MDUiIGlua3NjYXBlOmNvbm5lY3Rvci1jdXJ2YXR1cmU9IjAiIHN0eWxlPSJmaWxsOiM5OTk5OTk7IiBkPSJNMzIuNTQsNzAuODhIMTguMDhIMTUuMUgwLjY0ICAgICBDMC4yOSw3MC44OCwwLDcxLjA1LDAsNzEuMjZ2Mi41YzAsMC4yMSwwLjI5LDAuMzgsMC42NCwwLjM4SDE1LjFoMi45OGgxNC40NmMwLjM1LDAsMC42NC0wLjE3LDAuNjQtMC4zOHYtMi41ICAgICBDMzMuMTgsNzEuMDUsMzIuODksNzAuODgsMzIuNTQsNzAuODh6Ii8+JiN4YTsJCTwvZz4mI3hhOwkJPGcgaWQ9InNoYXBlNzM5NC0zOSIgdHJhbnNmb3JtPSJ0cmFuc2xhdGUoMjUuNTY0MywtNjIuMTk1MSkiPiYjeGE7CQkJPHRpdGxlIGlkPSJ0aXRsZTExNDkwOCI+U2hlZXQuNzM5NDwvdGl0bGU+JiN4YTsJCQk8cGF0aCBpZD0icGF0aDExNDkxMCIgaW5rc2NhcGU6Y29ubmVjdG9yLWN1cnZhdHVyZT0iMCIgc3R5bGU9ImZpbGw6I0ZGRkZGRjsiIGQ9Ik0zMi40NCw3MS4wM0gxNy45NWgtMi44MkgwLjY0ICAgICBDMC4yOSw3MS4wMywwLDcxLjE5LDAsNzEuMzl2Mi4zOWMwLDAuMiwwLjI5LDAuMzYsMC42NCwwLjM2aDE0LjQ5aDIuODJoMTQuNDljMC4zNSwwLDAuNjQtMC4xNiwwLjY0LTAuMzZ2LTIuMzkgICAgIEMzMy4wOCw3MS4xOSwzMi43OSw3MS4wMywzMi40NCw3MS4wM3oiLz4mI3hhOwkJPC9nPiYjeGE7CQk8ZyBpZD0ic2hhcGU3Mzk1LTQxIiB0cmFuc2Zvcm09InRyYW5zbGF0ZSgyNi4zNzc0LC02My4wODQzKSI+JiN4YTsJCQk8dGl0bGUgaWQ9InRpdGxlMTE0OTEzIj5TaGVldC43Mzk1PC90aXRsZT4mI3hhOwkJCTxwYXRoIGlkPSJwYXRoMTE0OTE1IiBpbmtzY2FwZTpjb25uZWN0b3ItY3VydmF0dXJlPSIwIiBzdHlsZT0iZmlsbDojNTg1OTVCOyIgZD0iTTAuNzYsNzQuMTFjMCwwLjAxLDAsMC4wMSwwLDAuMDEgICAgIGMwLDAuMDEtMC4wMSwwLjAxLTAuMDEsMC4wMWMtMC4wMSwwLTAuMDEsMC4wMS0wLjAyLDAuMDFzLTAuMDIsMC0wLjAzLDBzLTAuMDIsMC0wLjAzLDBjLTAuMDEtMC4wMS0wLjAxLTAuMDEtMC4wMi0wLjAxICAgICBjMCwwLTAuMDEsMC0wLjAxLTAuMDFjMCwwLDAsMCwwLTAuMDF2LTAuNTZjMC0wLjA1LTAuMDEtMC4xLTAuMDEtMC4xNGMtMC4wMS0wLjAzLTAuMDMtMC4wNy0wLjA1LTAuMDkgICAgIGMtMC4wMS0wLjAzLTAuMDQtMC4wNS0wLjA2LTAuMDZjLTAuMDMtMC4wMi0wLjA3LTAuMDItMC4xLTAuMDJjLTAuMDUsMC0wLjEsMC4wMS0wLjE1LDAuMDVjLTAuMDQsMC4wMy0wLjA5LDAuMDgtMC4xNSwwLjE1djAuNjcgICAgIGMwLDAuMDEsMCwwLjAxLDAsMC4wMWMwLDAuMDEsMCwwLjAxLTAuMDEsMC4wMWMwLDAtMC4wMSwwLTAuMDIsMC4wMWMtMC4wMSwwLTAuMDIsMC0wLjAzLDBjLTAuMDEsMC0wLjAyLDAtMC4wMywwICAgICBjLTAuMDEtMC4wMS0wLjAxLTAuMDEtMC4wMi0wLjAxYzAsMC0wLjAxLDAtMC4wMS0wLjAxYzAsMCwwLDAsMC0wLjAxdi0xLjRWNzIuN2wwLjAxLTAuMDFjMC4wMSwwLDAuMDEsMCwwLjAyLDAgICAgIGMwLjAxLTAuMDEsMC4wMi0wLjAxLDAuMDMtMC4wMXMwLjAyLDAsMC4wMywwLjAxYzAuMDEsMCwwLjAyLDAsMC4wMiwwYzAuMDEsMCwwLjAxLDAuMDEsMC4wMSwwLjAxdjAuMDF2MC41OSAgICAgYzAuMDUtMC4wNiwwLjExLTAuMSwwLjE2LTAuMTNjMC4wNS0wLjAyLDAuMS0wLjA0LDAuMTUtMC4wNGMwLjA2LDAsMC4xMSwwLjAxLDAuMTYsMC4wM2MwLjA0LDAuMDIsMC4wNywwLjA1LDAuMSwwLjA5ICAgICBjMC4wMiwwLjAzLDAuMDQsMC4wNywwLjA1LDAuMTJjMC4wMiwwLjA1LDAuMDIsMC4xMSwwLjAyLDAuMTdWNzQuMTF6Ii8+JiN4YTsJCTwvZz4mI3hhOwkJPGcgaWQ9InNoYXBlNzM5Ni00MyIgdHJhbnNmb3JtPSJ0cmFuc2xhdGUoMjcuMzk5NCwtNjMuMDc0MykiPiYjeGE7CQkJPHRpdGxlIGlkPSJ0aXRsZTExNDkxOCI+U2hlZXQuNzM5NjwvdGl0bGU+JiN4YTsJCQk8cGF0aCBpZD0icGF0aDExNDkyMCIgaW5rc2NhcGU6Y29ubmVjdG9yLWN1cnZhdHVyZT0iMCIgc3R5bGU9ImZpbGw6IzU4NTk1QjsiIGQ9Ik0xLjIxLDc0LjA0YzAsMC4wMiwwLDAuMDMsMCwwLjA0ICAgICBDMS4yLDc0LjA5LDEuMiw3NC4xLDEuMTksNzQuMWMwLDAuMDEtMC4wMSwwLjAxLTAuMDIsMC4wMmMtMC4wMSwwLTAuMDIsMC0wLjAzLDAuMDFjLTAuMDIsMC0wLjAzLDAtMC4wNCwwLjAxICAgICBjLTAuMDIsMC0wLjAzLDAtMC4wNSwwYy0wLjA0LDAtMC4wOC0wLjAxLTAuMTItMC4wMmMtMC4wMy0wLjAxLTAuMDYtMC4wMy0wLjA4LTAuMDZDMC44Myw3NC4wNCwwLjgyLDc0LDAuODEsNzMuOTcgICAgIEMwLjgsNzMuOTMsMC44LDczLjg4LDAuOCw3My44M3YtMC41OUgwLjI5djAuNTdjMCwwLjA3LDAuMDEsMC4xMywwLjA0LDAuMTdjMC4wMiwwLjAzLDAuMDUsMC4wNSwwLjExLDAuMDVjMC4wMSwwLDAuMDMsMCwwLjA0LDAgICAgIGMwLjAyLTAuMDEsMC4wMy0wLjAxLDAuMDQtMC4wMWMwLjAxLTAuMDEsMC4wMi0wLjAxLDAuMDItMC4wMmMwLjAxLDAsMC4wMiwwLDAuMDIsMGMwLjAxLDAsMC4wMSwwLDAuMDEsMCAgICAgYzAuMDEsMCwwLjAxLDAsMC4wMSwwLjAxdjAuMDFjMCwwLjAxLDAuMDEsMC4wMiwwLjAxLDAuMDN2MC4wMWMtMC4wMSwwLjAxLTAuMDEsMC4wMS0wLjAxLDAuMDJ2MC4wMWMwLDAuMDEtMC4wMSwwLjAxLTAuMDEsMC4wMSAgICAgYy0wLjAxLDAuMDEtMC4wMiwwLjAxLTAuMDIsMC4wMmMtMC4wMSwwLTAuMDMsMC0wLjA0LDAuMDFjLTAuMDEsMC0wLjAyLDAtMC4wNCwwLjAxYy0wLjAxLDAtMC4wMywwLTAuMDQsMCAgICAgYy0wLjA1LDAtMC4wOS0wLjAxLTAuMTItMC4wMmMtMC4wMy0wLjAxLTAuMDYtMC4wMy0wLjA4LTAuMDZjLTAuMDItMC4wMi0wLjA0LTAuMDUtMC4wNC0wLjA5Yy0wLjAxLTAuMDQtMC4wMi0wLjA5LTAuMDItMC4xNCAgICAgdi0wLjU5SDAuMDNjLTAuMDEsMC0wLjAyLDAtMC4wMi0wLjAxQzAsNzMuMjIsMCw3My4yMSwwLDczLjE5YzAtMC4wMSwwLTAuMDEsMC0wLjAyYzAtMC4wMSwwLjAxLTAuMDEsMC4wMS0wLjAyICAgICBjMCwwLDAtMC4wMSwwLjAxLTAuMDFoMC4wMWgwLjE0di0wLjIzYzAtMC4wMSwwLTAuMDEsMC0wLjAxYzAuMDEtMC4wMSwwLjAxLTAuMDEsMC4wMS0wLjAxYzAuMDEsMCwwLjAxLTAuMDEsMC4wMi0wLjAxICAgICBjMC4wMSwwLDAuMDIsMCwwLjAzLDBzMC4wMiwwLDAuMDMsMGMwLjAxLDAsMC4wMiwwLjAxLDAuMDIsMC4wMWMwLjAxLDAsMC4wMSwwLDAuMDEsMC4wMWMwLDAsMCwwLDAsMC4wMXYwLjIzSDAuOHYtMC4yNyAgICAgYzAtMC4wMSwwLTAuMDEsMC0wLjAyYzAsMCwwLDAsMC4wMSwwYzAtMC4wMSwwLjAxLTAuMDEsMC4wMi0wLjAxYzAsMCwwLjAxLDAsMC4wMywwYzAuMDEsMCwwLjAyLDAsMC4wMywwICAgICBjMCwwLDAuMDEsMC4wMSwwLjAyLDAuMDFjMCwwLDAsMCwwLjAxLDBjMCwwLjAxLDAsMC4wMSwwLDAuMDJ2MC4yN2gwLjI2aDAuMDFsMC4wMSwwLjAxYzAsMC4wMSwwLDAuMDEsMC4wMSwwLjAyICAgICBjMCwwLjAxLDAsMC4wMSwwLDAuMDJjMCwwLjAyLDAsMC4wMy0wLjAxLDAuMDRzLTAuMDEsMC4wMS0wLjAyLDAuMDFIMC45MnYwLjU3YzAsMC4wNywwLjAxLDAuMTMsMC4wMywwLjE3ICAgICBjMC4wMiwwLjAzLDAuMDYsMC4wNSwwLjExLDAuMDVjMC4wMiwwLDAuMDMsMCwwLjA1LDBjMC4wMS0wLjAxLDAuMDItMC4wMSwwLjAzLTAuMDFjMC4wMS0wLjAxLDAuMDItMC4wMSwwLjAzLTAuMDIgICAgIGMwLjAxLDAsMC4wMSwwLDAuMDIsMGMwLDAsMCwwLDAuMDEsMGMwLDAsMCwwLDAsMC4wMWwwLjAxLDAuMDFDMS4yMSw3NC4wMywxLjIxLDc0LjA0LDEuMjEsNzQuMDR6Ii8+JiN4YTsJCTwvZz4mI3hhOwkJPGcgaWQ9InNoYXBlNzM5Ny00NSIgdHJhbnNmb3JtPSJ0cmFuc2xhdGUoMjguOTI1NiwtNjIuNzExNykiPiYjeGE7CQkJPHRpdGxlIGlkPSJ0aXRsZTExNDkyMyI+U2hlZXQuNzM5NzwvdGl0bGU+JiN4YTsJCQk8cGF0aCBpZD0icGF0aDExNDkyNSIgaW5rc2NhcGU6Y29ubmVjdG9yLWN1cnZhdHVyZT0iMCIgc3R5bGU9ImZpbGw6IzU4NTk1QjsiIGQ9Ik0wLjgyLDczLjI1YzAsMC4wOC0wLjAxLDAuMTYtMC4wMywwLjIyICAgICBjLTAuMDEsMC4wNy0wLjA0LDAuMTItMC4wNywwLjE3Yy0wLjA0LDAuMDQtMC4wOCwwLjA4LTAuMTMsMC4xcy0wLjExLDAuMDQtMC4xNywwLjA0Yy0wLjAzLDAtMC4wNi0wLjAxLTAuMDgtMC4wMSAgICAgYy0wLjAzLTAuMDEtMC4wNS0wLjAyLTAuMDctMC4wM2MtMC4wMy0wLjAxLTAuMDUtMC4wMy0wLjA3LTAuMDVjLTAuMDMtMC4wMS0wLjA1LTAuMDQtMC4wOC0wLjA2djAuNDhjMCwwLjAxLDAsMC4wMSwwLDAuMDEgICAgIGMwLDAuMDEsMCwwLjAxLTAuMDEsMC4wMWMwLDAtMC4wMSwwLjAxLTAuMDIsMC4wMXMtMC4wMiwwLTAuMDMsMHMtMC4wMiwwLTAuMDMsMHMtMC4wMS0wLjAxLTAuMDItMC4wMWMwLDAtMC4wMSwwLTAuMDEtMC4wMSAgICAgYzAsMCwwLDAsMC0wLjAxVjcyLjhjMC0wLjAxLDAtMC4wMSwwLTAuMDFjMC0wLjAxLDAuMDEtMC4wMSwwLjAxLTAuMDFjMC4wMSwwLDAuMDEtMC4wMSwwLjAyLTAuMDFzMC4wMiwwLDAuMDMsMHMwLjAyLDAsMC4wMiwwICAgICBjMC4wMSwwLDAuMDIsMC4wMSwwLjAyLDAuMDFzMC4wMSwwLDAuMDEsMC4wMWMwLDAsMCwwLDAsMC4wMXYwLjEzYzAuMDMtMC4wMywwLjA2LTAuMDUsMC4wOS0wLjA3YzAuMDItMC4wMiwwLjA1LTAuMDQsMC4wOC0wLjA2ICAgICBjMC4wMi0wLjAxLDAuMDUtMC4wMiwwLjA4LTAuMDNjMC4wMi0wLjAxLDAuMDUtMC4wMSwwLjA4LTAuMDFjMC4wNywwLDAuMTMsMC4wMSwwLjE4LDAuMDRzMC4wOCwwLjA2LDAuMTEsMC4xMSAgICAgQzAuNzYsNzIuOTUsMC43OSw3MywwLjgsNzMuMDZDMC44MSw3My4xMiwwLjgyLDczLjE5LDAuODIsNzMuMjV6IE0wLjY5LDczLjI3YzAtMC4wNSwwLTAuMS0wLjAxLTAuMTUgICAgIGMtMC4wMS0wLjA1LTAuMDItMC4wOS0wLjA0LTAuMTNjLTAuMDItMC4wNC0wLjA1LTAuMDctMC4wOC0wLjA5Yy0wLjA0LTAuMDItMC4wOC0wLjAzLTAuMTMtMC4wM2MtMC4wMiwwLTAuMDUsMC0wLjA3LDAuMDEgICAgIGMtMC4wMiwwLTAuMDUsMC4wMS0wLjA3LDAuMDNjLTAuMDMsMC4wMi0wLjA1LDAuMDQtMC4wOCwwLjA2Yy0wLjAzLDAuMDMtMC4wNiwwLjA2LTAuMDksMC4xdjAuNDFjMC4wNiwwLjA2LDAuMTEsMC4xMSwwLjE1LDAuMTQgICAgIGMwLjA1LDAuMDMsMC4xLDAuMDUsMC4xNSwwLjA1czAuMDktMC4wMSwwLjEyLTAuMDNjMC4wNC0wLjAzLDAuMDctMC4wNiwwLjA5LTAuMWMwLjAyLTAuMDMsMC4wNC0wLjA4LDAuMDUtMC4xMiAgICAgQzAuNjksNzMuMzcsMC42OSw3My4zMiwwLjY5LDczLjI3eiIvPiYjeGE7CQk8L2c+JiN4YTsJCTxnIGlkPSJzaGFwZTczOTgtNDciIHRyYW5zZm9ybT0idHJhbnNsYXRlKDMwLjEzNzIsLTYzLjA4MzIpIj4mI3hhOwkJCTx0aXRsZSBpZD0idGl0bGUxMTQ5MjgiPlNoZWV0LjczOTg8L3RpdGxlPiYjeGE7CQkJPHBhdGggaWQ9InBhdGgxMTQ5MzAiIGlua3NjYXBlOmNvbm5lY3Rvci1jdXJ2YXR1cmU9IjAiIHN0eWxlPSJmaWxsOiM1ODU5NUI7IiBkPSJNMC4xOCw3My4yOWMwLDAuMDIsMCwwLjA0LTAuMDEsMC4wNSAgICAgYzAsMC4wMSwwLDAuMDItMC4wMSwwLjAzcy0wLjAyLDAuMDItMC4wMywwLjAycy0wLjAyLDAtMC4wNCwwcy0wLjAzLDAtMC4wNSwwYy0wLjAxLTAuMDEtMC4wMi0wLjAxLTAuMDItMC4wMiAgICAgQzAuMDEsNzMuMzYsMC4wMSw3My4zNSwwLDczLjM0YzAtMC4wMSwwLTAuMDMsMC0wLjA1YzAtMC4wMiwwLTAuMDMsMC0wLjA1YzAuMDEtMC4wMSwwLjAxLTAuMDIsMC4wMi0wLjAzICAgICBjMCwwLDAuMDEtMC4wMSwwLjAyLTAuMDFjMC4wMi0wLjAxLDAuMDMtMC4wMSwwLjA1LTAuMDFzMC4wMywwLDAuMDQsMC4wMWMwLjAxLDAsMC4wMiwwLjAxLDAuMDMsMC4wMSAgICAgYzAuMDEsMC4wMSwwLjAxLDAuMDIsMC4wMSwwLjAzQzAuMTgsNzMuMjYsMC4xOCw3My4yNywwLjE4LDczLjI5eiBNMC4xOCw3NC4wNGMwLDAuMDIsMCwwLjAzLTAuMDEsMC4wNWMwLDAuMDEsMCwwLjAyLTAuMDEsMC4wMyAgICAgYy0wLjAxLDAtMC4wMiwwLjAxLTAuMDMsMC4wMWMtMC4wMSwwLjAxLTAuMDIsMC4wMS0wLjA0LDAuMDFzLTAuMDMsMC0wLjA1LTAuMDFjLTAuMDEsMC0wLjAyLTAuMDEtMC4wMi0wLjAxICAgICBDMC4wMSw3NC4xMSwwLjAxLDc0LjEsMCw3NC4wOWMwLTAuMDIsMC0wLjAzLDAtMC4wNWMwLTAuMDIsMC0wLjA0LDAtMC4wNWMwLjAxLTAuMDEsMC4wMS0wLjAyLDAuMDItMC4wMyAgICAgYzAtMC4wMSwwLjAxLTAuMDEsMC4wMi0wLjAyYzAuMDIsMCwwLjAzLDAsMC4wNSwwczAuMDMsMCwwLjA0LDBjMC4wMSwwLjAxLDAuMDIsMC4wMSwwLjAzLDAuMDJjMC4wMSwwLjAxLDAuMDEsMC4wMiwwLjAxLDAuMDMgICAgIEMwLjE4LDc0LDAuMTgsNzQuMDIsMC4xOCw3NC4wNHoiLz4mI3hhOwkJPC9nPiYjeGE7CQk8ZyBpZD0ic2hhcGU3Mzk5LTQ5IiB0cmFuc2Zvcm09InRyYW5zbGF0ZSgzMC41NTgsLTYyLjgxMDkpIj4mI3hhOwkJCTx0aXRsZSBpZD0idGl0bGUxMTQ5MzMiPlNoZWV0LjczOTk8L3RpdGxlPiYjeGE7CQkJPHBhdGggaWQ9InBhdGgxMTQ5MzUiIGlua3NjYXBlOmNvbm5lY3Rvci1jdXJ2YXR1cmU9IjAiIHN0eWxlPSJmaWxsOiM1ODU5NUI7IiBkPSJNMC4xMiw3NC4xYzAsMC4wMSwwLDAuMDEsMCwwLjAyICAgICBjLTAuMDEsMC0wLjAxLDAuMDEtMC4wMiwwLjAxYzAsMC0wLjAxLDAuMDEtMC4wMiwwLjAxYzAsMC0wLjAxLDAtMC4wMiwwcy0wLjAyLDAtMC4wMywwYy0wLjAxLTAuMDEtMC4wMi0wLjAxLTAuMDItMC4wMSAgICAgQzAsNzQuMTIsMCw3NC4xMiwwLDc0LjExYzAsMCwwLTAuMDEsMC0wLjAybDAuNjQtMS43MWMwLTAuMDEsMC0wLjAyLDAuMDEtMC4wMmwwLjAxLTAuMDFjMC4wMSwwLDAuMDEtMC4wMSwwLjAyLTAuMDEgICAgIHMwLjAyLDAsMC4wMywwczAuMDIsMCwwLjAyLDBjMC4wMSwwLjAxLDAuMDIsMC4wMSwwLjAyLDAuMDFjMC4wMSwwLjAxLDAuMDEsMC4wMSwwLjAxLDAuMDJjMCwwLDAsMC4wMSwwLDAuMDJMMC4xMiw3NC4xeiIvPiYjeGE7CQk8L2c+JiN4YTsJCTxnIGlkPSJzaGFwZTc0MDAtNTEiIHRyYW5zZm9ybT0idHJhbnNsYXRlKDMxLjM5ODYsLTYyLjgxMDkpIj4mI3hhOwkJCTx0aXRsZSBpZD0idGl0bGUxMTQ5MzgiPlNoZWV0Ljc0MDA8L3RpdGxlPiYjeGE7CQkJPHBhdGggaWQ9InBhdGgxMTQ5NDAiIGlua3NjYXBlOmNvbm5lY3Rvci1jdXJ2YXR1cmU9IjAiIHN0eWxlPSJmaWxsOiM1ODU5NUI7IiBkPSJNMC4xMyw3NC4xYy0wLjAxLDAuMDEtMC4wMSwwLjAxLTAuMDEsMC4wMiAgICAgYy0wLjAxLDAtMC4wMSwwLjAxLTAuMDIsMC4wMWMwLDAtMC4wMSwwLjAxLTAuMDIsMC4wMWMwLDAtMC4wMSwwLTAuMDIsMHMtMC4wMiwwLTAuMDMsMGMtMC4wMS0wLjAxLTAuMDItMC4wMS0wLjAyLTAuMDEgICAgIGMwLTAuMDEtMC4wMS0wLjAxLTAuMDEtMC4wMmMwLDAsMC0wLjAxLDAtMC4wMmwwLjY0LTEuNzFjMC0wLjAxLDAtMC4wMiwwLjAxLTAuMDJsMC4wMS0wLjAxYzAuMDEsMCwwLjAxLTAuMDEsMC4wMi0wLjAxICAgICBzMC4wMiwwLDAuMDMsMHMwLjAyLDAsMC4wMiwwYzAuMDEsMC4wMSwwLjAyLDAuMDEsMC4wMiwwLjAxYzAuMDEsMC4wMSwwLjAxLDAuMDEsMC4wMSwwLjAyYzAsMCwwLDAuMDEsMCwwLjAyTDAuMTMsNzQuMXoiLz4mI3hhOwkJPC9nPiYjeGE7CQk8ZyBpZD0ic2hhcGU3NDAxLTUzIiB0cmFuc2Zvcm09InRyYW5zbGF0ZSgxNy4wMzMxLC0yOS40MjkpIj4mI3hhOwkJCTx0aXRsZSBpZD0idGl0bGUxMTQ5NDMiPlNoZWV0Ljc0MDE8L3RpdGxlPiYjeGE7CQkJPHBhdGggaWQ9InBhdGgxMTQ5NDUiIGlua3NjYXBlOmNvbm5lY3Rvci1jdXJ2YXR1cmU9IjAiIHN0eWxlPSJmaWxsOiNFNkU3RTg7IiBkPSJNMCw0My4zNmg2MC4wOHYzMC43OEgwVjQzLjM2eiIvPiYjeGE7CQk8L2c+JiN4YTsJCTxnIGlkPSJzaGFwZTc0MDItNTUiIHRyYW5zZm9ybT0idHJhbnNsYXRlKDYxLjM0MjMsLTQ5LjE1MzYpIj4mI3hhOwkJCTx0aXRsZSBpZD0idGl0bGUxMTQ5NDgiPlNoZWV0Ljc0MDI8L3RpdGxlPiYjeGE7CQkJPHBhdGggaWQ9InBhdGgxMTQ5NTAiIGlua3NjYXBlOmNvbm5lY3Rvci1jdXJ2YXR1cmU9IjAiIHN0eWxlPSJmaWxsOiNGRkRDNjY7IiBkPSJNMCw3NC4xNGgxMy42NHYtNy43OUgwVjc0LjE0eiIvPiYjeGE7CQk8L2c+JiN4YTsJCTxnIGlkPSJzaGFwZTc0MDMtNTciIHRyYW5zZm9ybT0idHJhbnNsYXRlKDYxLjM0MjMsLTMwLjgyODEpIj4mI3hhOwkJCTx0aXRsZSBpZD0idGl0bGUxMTQ5NTMiPlNoZWV0Ljc0MDM8L3RpdGxlPiYjeGE7CQkJPHBhdGggaWQ9InBhdGgxMTQ5NTUiIGlua3NjYXBlOmNvbm5lY3Rvci1jdXJ2YXR1cmU9IjAiIHN0eWxlPSJmaWxsOiNGNTgyMjA7IiBkPSJNMCw3NC4xNGgxMy42NFY2NUgwVjc0LjE0eiIvPiYjeGE7CQk8L2c+JiN4YTsJCTxnIGlkPSJzaGFwZTc0MDQtNTkiIHRyYW5zZm9ybT0idHJhbnNsYXRlKDE5LjM5OTQsLTU2LjAxMTkpIj4mI3hhOwkJCTx0aXRsZSBpZD0idGl0bGUxMTQ5NTgiPlNoZWV0Ljc0MDQ8L3RpdGxlPiYjeGE7CQkJPHBhdGggaWQ9InBhdGgxMTQ5NjAiIGlua3NjYXBlOmNvbm5lY3Rvci1jdXJ2YXR1cmU9IjAiIHN0eWxlPSJmaWxsOiM4MDgyODU7IiBkPSJNMCw3NC4xNGgxMy42NHYtMC45M0gwVjc0LjE0eiIvPiYjeGE7CQk8L2c+JiN4YTsJCTxnIGlkPSJzaGFwZTc0MDUtNjEiIHRyYW5zZm9ybT0idHJhbnNsYXRlKDE5LjM5OTQsLTU0LjU5NTYpIj4mI3hhOwkJCTx0aXRsZSBpZD0idGl0bGUxMTQ5NjMiPlNoZWV0Ljc0MDU8L3RpdGxlPiYjeGE7CQkJPHBhdGggaWQ9InBhdGgxMTQ5NjUiIGlua3NjYXBlOmNvbm5lY3Rvci1jdXJ2YXR1cmU9IjAiIHN0eWxlPSJmaWxsOiNCQ0JEQzA7IiBkPSJNMCw3NC4xNGgzNy43MnYtMC45M0gwVjc0LjE0eiIvPiYjeGE7CQk8L2c+JiN4YTsJCTxnIGlkPSJzaGFwZTc0MDYtNjMiIHRyYW5zZm9ybT0idHJhbnNsYXRlKDE5LjM5OTQsLTUzLjE3OTMpIj4mI3hhOwkJCTx0aXRsZSBpZD0idGl0bGUxMTQ5NjgiPlNoZWV0Ljc0MDY8L3RpdGxlPiYjeGE7CQkJPHBhdGggaWQ9InBhdGgxMTQ5NzAiIGlua3NjYXBlOmNvbm5lY3Rvci1jdXJ2YXR1cmU9IjAiIHN0eWxlPSJmaWxsOiNCQ0JEQzA7IiBkPSJNMCw3NC4xNGgzNy43MnYtMC45M0gwVjc0LjE0eiIvPiYjeGE7CQk8L2c+JiN4YTsJCTxnIGlkPSJzaGFwZTc0MDctNjUiIHRyYW5zZm9ybT0idHJhbnNsYXRlKDE5LjM5OTQsLTUxLjc2MjcpIj4mI3hhOwkJCTx0aXRsZSBpZD0idGl0bGUxMTQ5NzMiPlNoZWV0Ljc0MDc8L3RpdGxlPiYjeGE7CQkJPHBhdGggaWQ9InBhdGgxMTQ5NzUiIGlua3NjYXBlOmNvbm5lY3Rvci1jdXJ2YXR1cmU9IjAiIHN0eWxlPSJmaWxsOiNCQ0JEQzA7IiBkPSJNMCw3NC4xNGgzNy43MnYtMC45M0gwVjc0LjE0eiIvPiYjeGE7CQk8L2c+JiN4YTsJCTxnIGlkPSJzaGFwZTc0MDgtNjciIHRyYW5zZm9ybT0idHJhbnNsYXRlKDE5LjM5OTQsLTUwLjM0NjIpIj4mI3hhOwkJCTx0aXRsZSBpZD0idGl0bGUxMTQ5NzgiPlNoZWV0Ljc0MDg8L3RpdGxlPiYjeGE7CQkJPHBhdGggaWQ9InBhdGgxMTQ5ODAiIGlua3NjYXBlOmNvbm5lY3Rvci1jdXJ2YXR1cmU9IjAiIHN0eWxlPSJmaWxsOiNCQ0JEQzA7IiBkPSJNMCw3NC4xNGgyMS4xNnYtMC45M0gwVjc0LjE0eiIvPiYjeGE7CQk8L2c+JiN4YTsJCTxnIGlkPSJzaGFwZTc0MDktNjkiIHRyYW5zZm9ybT0idHJhbnNsYXRlKDE5LjM5OTQsLTQ4LjA4NDUpIj4mI3hhOwkJCTx0aXRsZSBpZD0idGl0bGUxMTQ5ODMiPlNoZWV0Ljc0MDk8L3RpdGxlPiYjeGE7CQkJPHBhdGggaWQ9InBhdGgxMTQ5ODUiIGlua3NjYXBlOmNvbm5lY3Rvci1jdXJ2YXR1cmU9IjAiIHN0eWxlPSJmaWxsOiM4MDgyODU7IiBkPSJNMCw3NC4xNGg3LjY1di0wLjkzSDBWNzQuMTR6Ii8+JiN4YTsJCTwvZz4mI3hhOwkJPGcgaWQ9InNoYXBlNzQxMC03MSIgdHJhbnNmb3JtPSJ0cmFuc2xhdGUoMTkuMzk5NCwtNDYuNjY4NCkiPiYjeGE7CQkJPHRpdGxlIGlkPSJ0aXRsZTExNDk4OCI+U2hlZXQuNzQxMDwvdGl0bGU+JiN4YTsJCQk8cGF0aCBpZD0icGF0aDExNDk5MCIgaW5rc2NhcGU6Y29ubmVjdG9yLWN1cnZhdHVyZT0iMCIgc3R5bGU9ImZpbGw6I0JDQkRDMDsiIGQ9Ik0wLDc0LjE0aDIxLjE2di0wLjkzSDBWNzQuMTR6Ii8+JiN4YTsJCTwvZz4mI3hhOwkJPGcgaWQ9InNoYXBlNzQxMS03MyIgdHJhbnNmb3JtPSJ0cmFuc2xhdGUoMTkuMzk5NCwtNDUuMjUxNikiPiYjeGE7CQkJPHRpdGxlIGlkPSJ0aXRsZTExNDk5MyI+U2hlZXQuNzQxMTwvdGl0bGU+JiN4YTsJCQk8cGF0aCBpZD0icGF0aDExNDk5NSIgaW5rc2NhcGU6Y29ubmVjdG9yLWN1cnZhdHVyZT0iMCIgc3R5bGU9ImZpbGw6I0JDQkRDMDsiIGQ9Ik0wLDc0LjE0aDIxLjE2di0wLjkzSDBWNzQuMTR6Ii8+JiN4YTsJCTwvZz4mI3hhOwkJPGcgaWQ9InNoYXBlNzQxMi03NSIgdHJhbnNmb3JtPSJ0cmFuc2xhdGUoMTkuMzk5NCwtNDMuODM1MykiPiYjeGE7CQkJPHRpdGxlIGlkPSJ0aXRsZTExNDk5OCI+U2hlZXQuNzQxMjwvdGl0bGU+JiN4YTsJCQk8cGF0aCBpZD0icGF0aDExNTAwMCIgaW5rc2NhcGU6Y29ubmVjdG9yLWN1cnZhdHVyZT0iMCIgc3R5bGU9ImZpbGw6I0JDQkRDMDsiIGQ9Ik0wLDc0LjE0aDIxLjE2di0wLjkzSDBWNzQuMTR6Ii8+JiN4YTsJCTwvZz4mI3hhOwkJPGcgaWQ9InNoYXBlNzQxMy03NyIgdHJhbnNmb3JtPSJ0cmFuc2xhdGUoMTkuMzk5NCwtNDIuNDE5MikiPiYjeGE7CQkJPHRpdGxlIGlkPSJ0aXRsZTExNTAwMyI+U2hlZXQuNzQxMzwvdGl0bGU+JiN4YTsJCQk8cGF0aCBpZD0icGF0aDExNTAwNSIgaW5rc2NhcGU6Y29ubmVjdG9yLWN1cnZhdHVyZT0iMCIgc3R5bGU9ImZpbGw6I0JDQkRDMDsiIGQ9Ik0wLDc0LjE0aDExLjg3di0wLjkzSDBWNzQuMTR6Ii8+JiN4YTsJCTwvZz4mI3hhOwkJPGcgaWQ9InNoYXBlNzQxNC03OSIgdHJhbnNmb3JtPSJ0cmFuc2xhdGUoMTkuMzk5NCwtNDAuMTU3MSkiPiYjeGE7CQkJPHRpdGxlIGlkPSJ0aXRsZTExNTAwOCI+U2hlZXQuNzQxNDwvdGl0bGU+JiN4YTsJCQk8cGF0aCBpZD0icGF0aDExNTAxMCIgaW5rc2NhcGU6Y29ubmVjdG9yLWN1cnZhdHVyZT0iMCIgc3R5bGU9ImZpbGw6IzgwODI4NTsiIGQ9Ik0wLDc0LjE0aDcuNjV2LTAuOTNIMFY3NC4xNHoiLz4mI3hhOwkJPC9nPiYjeGE7CQk8ZyBpZD0ic2hhcGU3NDE1LTgxIiB0cmFuc2Zvcm09InRyYW5zbGF0ZSgxOS4zOTk0LC0zOC43NDEyKSI+JiN4YTsJCQk8dGl0bGUgaWQ9InRpdGxlMTE1MDEzIj5TaGVldC43NDE1PC90aXRsZT4mI3hhOwkJCTxwYXRoIGlkPSJwYXRoMTE1MDE1IiBpbmtzY2FwZTpjb25uZWN0b3ItY3VydmF0dXJlPSIwIiBzdHlsZT0iZmlsbDojQkNCREMwOyIgZD0iTTAsNzQuMTRoMjEuMTZ2LTAuOTNIMFY3NC4xNHoiLz4mI3hhOwkJPC9nPiYjeGE7CQk8ZyBpZD0ic2hhcGU3NDE2LTgzIiB0cmFuc2Zvcm09InRyYW5zbGF0ZSgxOS4zOTk0LC0zNy4zMjQ1KSI+JiN4YTsJCQk8dGl0bGUgaWQ9InRpdGxlMTE1MDE4Ij5TaGVldC43NDE2PC90aXRsZT4mI3hhOwkJCTxwYXRoIGlkPSJwYXRoMTE1MDIwIiBpbmtzY2FwZTpjb25uZWN0b3ItY3VydmF0dXJlPSIwIiBzdHlsZT0iZmlsbDojQkNCREMwOyIgZD0iTTAsNzQuMTRoMjEuMTZ2LTAuOTNIMFY3NC4xNHoiLz4mI3hhOwkJPC9nPiYjeGE7CQk8ZyBpZD0ic2hhcGU3NDE3LTg1IiB0cmFuc2Zvcm09InRyYW5zbGF0ZSgxOS4zOTk0LC0zNS45MDgyKSI+JiN4YTsJCQk8dGl0bGUgaWQ9InRpdGxlMTE1MDIzIj5TaGVldC43NDE3PC90aXRsZT4mI3hhOwkJCTxwYXRoIGlkPSJwYXRoMTE1MDI1IiBpbmtzY2FwZTpjb25uZWN0b3ItY3VydmF0dXJlPSIwIiBzdHlsZT0iZmlsbDojQkNCREMwOyIgZD0iTTAsNzQuMTRoMjEuMTZ2LTAuOTNIMFY3NC4xNHoiLz4mI3hhOwkJPC9nPiYjeGE7CQk8ZyBpZD0ic2hhcGU3NDE4LTg3IiB0cmFuc2Zvcm09InRyYW5zbGF0ZSgxOS4zOTk0LC0zNC40OTE4KSI+JiN4YTsJCQk8dGl0bGUgaWQ9InRpdGxlMTE1MDI4Ij5TaGVldC43NDE4PC90aXRsZT4mI3hhOwkJCTxwYXRoIGlkPSJwYXRoMTE1MDMwIiBpbmtzY2FwZTpjb25uZWN0b3ItY3VydmF0dXJlPSIwIiBzdHlsZT0iZmlsbDojQkNCREMwOyIgZD0iTTAsNzQuMTRoMTEuODd2LTAuOTNIMFY3NC4xNHoiLz4mI3hhOwkJPC9nPiYjeGE7CQk8ZyBpZD0ic2hhcGU3NDE5LTg5IiB0cmFuc2Zvcm09InRyYW5zbGF0ZSg2MS4zNDIzLC00MS4zNjM0KSI+JiN4YTsJCQk8dGl0bGUgaWQ9InRpdGxlMTE1MDMzIj5TaGVldC43NDE5PC90aXRsZT4mI3hhOwkJCTxwYXRoIGlkPSJwYXRoMTE1MDM1IiBpbmtzY2FwZTpjb25uZWN0b3ItY3VydmF0dXJlPSIwIiBzdHlsZT0iZmlsbDojQzZERDc5OyIgZD0iTTAsNzQuMTRoMTMuNjR2LTYuMjZIMFY3NC4xNHoiLz4mI3hhOwkJPC9nPiYjeGE7CQk8ZyBpZD0ic2hhcGU3NDIwLTkxIiB0cmFuc2Zvcm09InRyYW5zbGF0ZSg0Mi42NzksLTMzLjYyNjMpIj4mI3hhOwkJCTx0aXRsZSBpZD0idGl0bGUxMTUwMzgiPlNoZWV0Ljc0MjA8L3RpdGxlPiYjeGE7CQkJPHBhdGggaWQ9InBhdGgxMTUwNDAiIGlua3NjYXBlOmNvbm5lY3Rvci1jdXJ2YXR1cmU9IjAiIHN0eWxlPSJmaWxsOiNBNkNFMzk7IiBkPSJNMCw2NmgyLjI4djguMTRIMFY2NnoiLz4mI3hhOwkJPC9nPiYjeGE7CQk8ZyBpZD0ic2hhcGU3NDIxLTkzIiB0cmFuc2Zvcm09InRyYW5zbGF0ZSg0Mi42NzksLTMzLjYyNjMpIj4mI3hhOwkJCTx0aXRsZSBpZD0idGl0bGUxMTUwNDMiPlNoZWV0Ljc0MjE8L3RpdGxlPiYjeGE7CQkJPHBhdGggaWQ9InBhdGgxMTUwNDUiIGlua3NjYXBlOmNvbm5lY3Rvci1jdXJ2YXR1cmU9IjAiIHN0eWxlPSJmaWxsOiM0N0E1QUU7IiBkPSJNMCw2OC4wNGgyLjI4djYuMUgwVjY4LjA0eiIvPiYjeGE7CQk8L2c+JiN4YTsJCTxnIGlkPSJzaGFwZTc0MjItOTUiIHRyYW5zZm9ybT0idHJhbnNsYXRlKDU1LjgyNywtMzMuNjA4OSkiPiYjeGE7CQkJPHRpdGxlIGlkPSJ0aXRsZTExNTA0OCI+U2hlZXQuNzQyMjwvdGl0bGU+JiN4YTsJCQk8cGF0aCBpZD0icGF0aDExNTA1MCIgaW5rc2NhcGU6Y29ubmVjdG9yLWN1cnZhdHVyZT0iMCIgc3R5bGU9ImZpbGw6I0Y1ODIyMDsiIGQ9Ik0wLDYwLjE1aDIuMjh2MTMuOTlIMFY2MC4xNXoiLz4mI3hhOwkJPC9nPiYjeGE7CQk8ZyBpZD0ic2hhcGU3NDIzLTk3IiB0cmFuc2Zvcm09InRyYW5zbGF0ZSg1NS44MjcsLTMzLjYwODkpIj4mI3hhOwkJCTx0aXRsZSBpZD0idGl0bGUxMTUwNTMiPlNoZWV0Ljc0MjM8L3RpdGxlPiYjeGE7CQkJPHBhdGggaWQ9InBhdGgxMTUwNTUiIGlua3NjYXBlOmNvbm5lY3Rvci1jdXJ2YXR1cmU9IjAiIHN0eWxlPSJmaWxsOiM0N0E1QUU7IiBkPSJNMCw2NC41MmgyLjI4djkuNjJIMFY2NC41MnoiLz4mI3hhOwkJPC9nPiYjeGE7CQk8ZyBpZD0ic2hhcGU3NDI0LTk5IiB0cmFuc2Zvcm09InRyYW5zbGF0ZSg0Ni41NzkyLC0zMy42MzY5KSI+JiN4YTsJCQk8dGl0bGUgaWQ9InRpdGxlMTE1MDU4Ij5TaGVldC43NDI0PC90aXRsZT4mI3hhOwkJCTxwYXRoIGlkPSJwYXRoMTE1MDYwIiBpbmtzY2FwZTpjb25uZWN0b3ItY3VydmF0dXJlPSIwIiBzdHlsZT0iZmlsbDojQTZDRTM5OyIgZD0iTTAsNjYuNjNoMi4yOHY3LjUxSDBWNjYuNjN6Ii8+JiN4YTsJCTwvZz4mI3hhOwkJPGcgaWQ9InNoYXBlNzQyNS0xMDEiIHRyYW5zZm9ybT0idHJhbnNsYXRlKDQ2LjU3OTIsLTMzLjYzNjkpIj4mI3hhOwkJCTx0aXRsZSBpZD0idGl0bGUxMTUwNjMiPlNoZWV0Ljc0MjU8L3RpdGxlPiYjeGE7CQkJPHBhdGggaWQ9InBhdGgxMTUwNjUiIGlua3NjYXBlOmNvbm5lY3Rvci1jdXJ2YXR1cmU9IjAiIHN0eWxlPSJmaWxsOiM0N0E1QUU7IiBkPSJNMCw2OC45N2gyLjI4djUuMTdIMFY2OC45N3oiLz4mI3hhOwkJPC9nPiYjeGE7CQk8ZyBpZD0ic2hhcGU3NDI2LTEwMyIgdHJhbnNmb3JtPSJ0cmFuc2xhdGUoNDkuNjE5MywtMzMuNjM2OSkiPiYjeGE7CQkJPHRpdGxlIGlkPSJ0aXRsZTExNTA2OCI+U2hlZXQuNzQyNjwvdGl0bGU+JiN4YTsJCQk8cGF0aCBpZD0icGF0aDExNTA3MCIgaW5rc2NhcGU6Y29ubmVjdG9yLWN1cnZhdHVyZT0iMCIgc3R5bGU9ImZpbGw6I0E2Q0UzOTsiIGQ9Ik0wLDYxLjc5aDIuMjh2MTIuMzVIMFY2MS43OXoiLz4mI3hhOwkJPC9nPiYjeGE7CQk8ZyBpZD0ic2hhcGU3NDI3LTEwNSIgdHJhbnNmb3JtPSJ0cmFuc2xhdGUoNDkuNjE5MywtMzMuNjM2OSkiPiYjeGE7CQkJPHRpdGxlIGlkPSJ0aXRsZTExNTA3MyI+U2hlZXQuNzQyNzwvdGl0bGU+JiN4YTsJCQk8cGF0aCBpZD0icGF0aDExNTA3NSIgaW5rc2NhcGU6Y29ubmVjdG9yLWN1cnZhdHVyZT0iMCIgc3R5bGU9ImZpbGw6IzQ3QTVBRTsiIGQ9Ik0wLDY0LjQyaDIuMjh2OS43MkgwVjY0LjQyeiIvPiYjeGE7CQk8L2c+JiN4YTsJCTxnIGlkPSJzaGFwZTc0MjgtMTA3IiB0cmFuc2Zvcm09InRyYW5zbGF0ZSg1Mi42NTkzLC0zMy42MzY5KSI+JiN4YTsJCQk8dGl0bGUgaWQ9InRpdGxlMTE1MDc4Ij5TaGVldC43NDI4PC90aXRsZT4mI3hhOwkJCTxwYXRoIGlkPSJwYXRoMTE1MDgwIiBpbmtzY2FwZTpjb25uZWN0b3ItY3VydmF0dXJlPSIwIiBzdHlsZT0iZmlsbDojQTZDRTM5OyIgZD0iTTAsNjQuMjFoMi4yOHY5LjkzSDBWNjQuMjF6Ii8+JiN4YTsJCTwvZz4mI3hhOwkJPGcgaWQ9InNoYXBlNzQyOS0xMDkiIHRyYW5zZm9ybT0idHJhbnNsYXRlKDUyLjY1OTMsLTMzLjYzNjkpIj4mI3hhOwkJCTx0aXRsZSBpZD0idGl0bGUxMTUwODMiPlNoZWV0Ljc0Mjk8L3RpdGxlPiYjeGE7CQkJPHBhdGggaWQ9InBhdGgxMTUwODUiIGlua3NjYXBlOmNvbm5lY3Rvci1jdXJ2YXR1cmU9IjAiIHN0eWxlPSJmaWxsOiM0N0E1QUU7IiBkPSJNMCw2Ni40NGgyLjI4djcuN0gwVjY2LjQ0eiIvPiYjeGE7CQk8L2c+JiN4YTsJCTxnIGlkPSJzaGFwZTc0MzAtMTExIiB0cmFuc2Zvcm09InRyYW5zbGF0ZSg0Mi4yNTQ1LC0zOS4xNTY4KSI+JiN4YTsJCQk8dGl0bGUgaWQ9InRpdGxlMTE1MDg4Ij5TaGVldC43NDMwPC90aXRsZT4mI3hhOwkJCTxwYXRoIGlkPSJwYXRoMTE1MDkwIiBpbmtzY2FwZTpjb25uZWN0b3ItY3VydmF0dXJlPSIwIiBzdHlsZT0iZmlsbDojM0U4OUM5OyIgZD0iTTMuODMsNjkuNzNsMC4xMSwwLjFsLTMuODMsNC4zMUwwLDc0LjA0ICAgICBMMy44Myw2OS43M3oiLz4mI3hhOwkJPC9nPiYjeGE7CQk8ZyBpZD0ic2hhcGU3NDMxLTExMyIgdHJhbnNmb3JtPSJ0cmFuc2xhdGUoNDYuMDc3MywtNDEuMTA1MykiPiYjeGE7CQkJPHRpdGxlIGlkPSJ0aXRsZTExNTA5MyI+U2hlZXQuNzQzMTwvdGl0bGU+JiN4YTsJCQk8cGF0aCBpZD0icGF0aDExNTA5NSIgaW5rc2NhcGU6Y29ubmVjdG9yLWN1cnZhdHVyZT0iMCIgc3R5bGU9ImZpbGw6IzNFODlDOTsiIGQ9Ik0xLjc2LDc0LjA2bC0wLjEyLDAuMDhMMCw3MS43N2wwLjEyLTAuMDggICAgIEwxLjc2LDc0LjA2eiIvPiYjeGE7CQk8L2c+JiN4YTsJCTxnIGlkPSJzaGFwZTc0MzItMTE1IiB0cmFuc2Zvcm09InRyYW5zbGF0ZSg0Ny43MTUyLC00MS4xMTY2KSI+JiN4YTsJCQk8dGl0bGUgaWQ9InRpdGxlMTE1MDk4Ij5TaGVldC43NDMyPC90aXRsZT4mI3hhOwkJCTxwYXRoIGlkPSJwYXRoMTE1MTAwIiBpbmtzY2FwZTpjb25uZWN0b3ItY3VydmF0dXJlPSIwIiBzdHlsZT0iZmlsbDojM0U4OUM5OyIgZD0iTTMuNTgsNjYuMzlsMC4xMywwLjA2bC0zLjU4LDcuNjlMMCw3NC4wOCAgICAgTDMuNTgsNjYuMzl6Ii8+JiN4YTsJCTwvZz4mI3hhOwkJPGcgaWQ9InNoYXBlNzQzMy0xMTciIHRyYW5zZm9ybT0idHJhbnNsYXRlKDUxLjI0NjcsLTQ0LjM1NTkpIj4mI3hhOwkJCTx0aXRsZSBpZD0idGl0bGUxMTUxMDMiPlNoZWV0Ljc0MzM8L3RpdGxlPiYjeGE7CQkJPHBhdGggaWQ9InBhdGgxMTUxMDUiIGlua3NjYXBlOmNvbm5lY3Rvci1jdXJ2YXR1cmU9IjAiIHN0eWxlPSJmaWxsOiMzRTg5Qzk7IiBkPSJNMi40Miw3NC4xNGwtMC4xNy0wLjAzTDAsNjkuODlsMC4xNywwLjAzICAgICBMMi40Miw3NC4xNHoiLz4mI3hhOwkJPC9nPiYjeGE7CQk8ZyBpZD0ic2hhcGU3NDM0LTExOSIgdHJhbnNmb3JtPSJ0cmFuc2xhdGUoNTMuNjczOCwtNDMuOTQyNykiPiYjeGE7CQkJPHRpdGxlIGlkPSJ0aXRsZTExNTEwOCI+U2hlZXQuNzQzNDwvdGl0bGU+JiN4YTsJCQk8cGF0aCBpZD0icGF0aDExNTExMCIgaW5rc2NhcGU6Y29ubmVjdG9yLWN1cnZhdHVyZT0iMCIgc3R5bGU9ImZpbGw6IzNFODlDOTsiIGQ9Ik0wLjA2LDc0LjE0TDAsNzRsMy40NS01LjZsMC4wNiwwLjEzICAgICBMMC4wNiw3NC4xNHoiLz4mI3hhOwkJPC9nPiYjeGE7CQk8ZyBpZD0ic2hhcGU3NDM1LTEyMSIgdHJhbnNmb3JtPSJ0cmFuc2xhdGUoNDUuNjY3MiwtNDMuMDQ0OCkiPiYjeGE7CQkJPHRpdGxlIGlkPSJ0aXRsZTExNTExMyI+U2hlZXQuNzQzNTwvdGl0bGU+JiN4YTsJCQk8cGF0aCBpZD0icGF0aDExNTExNSIgaW5rc2NhcGU6Y29ubmVjdG9yLWN1cnZhdHVyZT0iMCIgc3R5bGU9ImZpbGw6IzNFODlDOTsiIGQ9Ik0wLjQ3LDczLjJjMC4yNiwwLDAuNDcsMC4yMSwwLjQ3LDAuNDcgICAgIHMtMC4yMSwwLjQ3LTAuNDcsMC40N1MwLDczLjkzLDAsNzMuNjdDMCw3My40MSwwLjIxLDczLjIsMC40Nyw3My4yeiIvPiYjeGE7CQk8L2c+JiN4YTsJCTxnIGlkPSJzaGFwZTc0MzYtMTIzIiB0cmFuc2Zvcm09InRyYW5zbGF0ZSg0Ny4yOTkyLC00MC44MjE3KSI+JiN4YTsJCQk8dGl0bGUgaWQ9InRpdGxlMTE1MTE4Ij5TaGVldC43NDM2PC90aXRsZT4mI3hhOwkJCTxwYXRoIGlkPSJwYXRoMTE1MTIwIiBpbmtzY2FwZTpjb25uZWN0b3ItY3VydmF0dXJlPSIwIiBzdHlsZT0iZmlsbDojM0U4OUM5OyIgZD0iTTAuNDcsNzMuMmMwLjI2LDAsMC40NywwLjIxLDAuNDcsMC40NyAgICAgcy0wLjIxLDAuNDctMC40NywwLjQ3UzAsNzMuOTMsMCw3My42N0MwLDczLjQxLDAuMjEsNzMuMiwwLjQ3LDczLjJ6Ii8+JiN4YTsJCTwvZz4mI3hhOwkJPGcgaWQ9InNoYXBlNzQzNy0xMjUiIHRyYW5zZm9ybT0idHJhbnNsYXRlKDUwLjg4NjksLTQ4LjE4ODIpIj4mI3hhOwkJCTx0aXRsZSBpZD0idGl0bGUxMTUxMjMiPlNoZWV0Ljc0Mzc8L3RpdGxlPiYjeGE7CQkJPHBhdGggaWQ9InBhdGgxMTUxMjUiIGlua3NjYXBlOmNvbm5lY3Rvci1jdXJ2YXR1cmU9IjAiIHN0eWxlPSJmaWxsOiMzRTg5Qzk7IiBkPSJNMC40Nyw3My4yYzAuMjYsMCwwLjQ3LDAuMjEsMC40NywwLjQ3ICAgICBzLTAuMjEsMC40Ny0wLjQ3LDAuNDdTMCw3My45MywwLDczLjY3QzAsNzMuNDEsMC4yMSw3My4yLDAuNDcsNzMuMnoiLz4mI3hhOwkJPC9nPiYjeGE7CQk8ZyBpZD0ic2hhcGU3NDM4LTEyNyIgdHJhbnNmb3JtPSJ0cmFuc2xhdGUoNTMuMTk1MSwtNDMuNTEzNSkiPiYjeGE7CQkJPHRpdGxlIGlkPSJ0aXRsZTExNTEyOCI+U2hlZXQuNzQzODwvdGl0bGU+JiN4YTsJCQk8cGF0aCBpZD0icGF0aDExNTEzMCIgaW5rc2NhcGU6Y29ubmVjdG9yLWN1cnZhdHVyZT0iMCIgc3R5bGU9ImZpbGw6IzNFODlDOTsiIGQ9Ik0wLjQ3LDczLjJjMC4yNiwwLDAuNDcsMC4yMSwwLjQ3LDAuNDcgICAgIHMtMC4yMSwwLjQ3LTAuNDcsMC40N1MwLDczLjkzLDAsNzMuNjdDMCw3My40MSwwLjIxLDczLjIsMC40Nyw3My4yeiIvPiYjeGE7CQk8L2c+JiN4YTsJCTxnIGlkPSJzaGFwZTc0MzktMTI5IiB0cmFuc2Zvcm09InRyYW5zbGF0ZSg1Ni42NTAzLC00OC45OTYxKSI+JiN4YTsJCQk8dGl0bGUgaWQ9InRpdGxlMTE1MTMzIj5TaGVldC43NDM5PC90aXRsZT4mI3hhOwkJCTxwYXRoIGlkPSJwYXRoMTE1MTM1IiBpbmtzY2FwZTpjb25uZWN0b3ItY3VydmF0dXJlPSIwIiBzdHlsZT0iZmlsbDojM0U4OUM5OyIgZD0iTTAuNDcsNzMuMmMwLjI2LDAsMC40NywwLjIxLDAuNDcsMC40NyAgICAgcy0wLjIxLDAuNDctMC40NywwLjQ3UzAsNzMuOTMsMCw3My42N0MwLDczLjQxLDAuMjEsNzMuMiwwLjQ3LDczLjJ6Ii8+JiN4YTsJCTwvZz4mI3hhOwkJPGcgaWQ9InNoYXBlNzQ0MC0xMzEiIHRyYW5zZm9ybT0idHJhbnNsYXRlKDQxLjc4NTQsLTM4Ljc4MzUpIj4mI3hhOwkJCTx0aXRsZSBpZD0idGl0bGUxMTUxMzgiPlNoZWV0Ljc0NDA8L3RpdGxlPiYjeGE7CQkJPHBhdGggaWQ9InBhdGgxMTUxNDAiIGlua3NjYXBlOmNvbm5lY3Rvci1jdXJ2YXR1cmU9IjAiIHN0eWxlPSJmaWxsOiMzRTg5Qzk7IiBkPSJNMC40Nyw3My4yYzAuMjYsMCwwLjQ3LDAuMjEsMC40NywwLjQ3ICAgICBzLTAuMjEsMC40Ny0wLjQ3LDAuNDdTMCw3My45MywwLDczLjY3QzAsNzMuNDEsMC4yMSw3My4yLDAuNDcsNzMuMnoiLz4mI3hhOwkJPC9nPiYjeGE7CQk8ZyBpZD0ic2hhcGU3NDQxLTEzMyIgdHJhbnNmb3JtPSJ0cmFuc2xhdGUoMi4xMDYzNSwtMjEuMTA2MikiPiYjeGE7CQkJPHRpdGxlIGlkPSJ0aXRsZTExNTE0MyI+U2hlZXQuNzQ0MTwvdGl0bGU+JiN4YTsJCQk8cmVjdCBpZD0icmVjdDExNTE0NSIgeD0iMCIgeT0iNzAuMDkiIHN0eWxlPSJmaWxsOiMxQzc1QkM7IiB3aWR0aD0iOTAuNzIiIGhlaWdodD0iNC4wNSIvPiYjeGE7CQk8L2c+JiN4YTsJPC9nPiYjeGE7PC9nPiYjeGE7PC9zdmc+;" parent="1" vertex="1">
          <mxGeometry x="970" y="310.00000000000006" width="62.53" height="48.05" as="geometry" />
        </mxCell>
        <mxCell id="VH2hPDSzOGtYescyWvBb-41" style="edgeStyle=orthogonalEdgeStyle;rounded=0;orthogonalLoop=1;jettySize=auto;html=1;exitX=1;exitY=0;exitDx=0;exitDy=0;entryX=0;entryY=0.25;entryDx=0;entryDy=0;entryPerimeter=0;fontSize=15;fillColor=#dae8fc;strokeColor=#6c8ebf;" parent="1" source="VH2hPDSzOGtYescyWvBb-22" edge="1">
          <mxGeometry relative="1" as="geometry">
            <mxPoint x="790" y="87.5" as="targetPoint" />
          </mxGeometry>
        </mxCell>
        <mxCell id="1m1OT-jHCipNJAFshmgm-14" value="HTTP result" style="edgeLabel;html=1;align=center;verticalAlign=middle;resizable=0;points=[];fontSize=12;" vertex="1" connectable="0" parent="VH2hPDSzOGtYescyWvBb-41">
          <mxGeometry x="-0.5517" y="1" relative="1" as="geometry">
            <mxPoint as="offset" />
          </mxGeometry>
        </mxCell>
        <mxCell id="VH2hPDSzOGtYescyWvBb-87" style="edgeStyle=elbowEdgeStyle;rounded=0;orthogonalLoop=1;jettySize=auto;html=1;entryX=0;entryY=0.5;entryDx=0;entryDy=0;fontSize=12;fillColor=#dae8fc;strokeColor=#6c8ebf;" parent="1" target="VH2hPDSzOGtYescyWvBb-4" edge="1">
          <mxGeometry relative="1" as="geometry">
            <mxPoint x="690" y="170" as="sourcePoint" />
            <Array as="points">
              <mxPoint x="690" y="190" />
            </Array>
          </mxGeometry>
        </mxCell>
        <mxCell id="VH2hPDSzOGtYescyWvBb-88" value="5 article_ids" style="edgeLabel;html=1;align=center;verticalAlign=middle;resizable=0;points=[];fontSize=12;" parent="VH2hPDSzOGtYescyWvBb-87" vertex="1" connectable="0">
          <mxGeometry x="0.5544" y="1" relative="1" as="geometry">
            <mxPoint as="offset" />
          </mxGeometry>
        </mxCell>
        <mxCell id="1m1OT-jHCipNJAFshmgm-8" style="edgeStyle=orthogonalEdgeStyle;rounded=0;orthogonalLoop=1;jettySize=auto;html=1;exitX=0.25;exitY=1;exitDx=0;exitDy=0;fontSize=12;fillColor=#dae8fc;strokeColor=#6c8ebf;" edge="1" parent="1" source="VH2hPDSzOGtYescyWvBb-22">
          <mxGeometry relative="1" as="geometry">
            <mxPoint x="474" y="290" as="targetPoint" />
          </mxGeometry>
        </mxCell>
        <mxCell id="VH2hPDSzOGtYescyWvBb-22" value="Recommend function" style="shape=image;verticalLabelPosition=bottom;labelBackgroundColor=#ffffff;verticalAlign=top;aspect=fixed;imageAspect=0;image=data:image/svg+xml,PHN2ZyB4bWxuczpjYz0iaHR0cDovL2NyZWF0aXZlY29tbW9ucy5vcmcvbnMjIiB4bWxuczpkYz0iaHR0cDovL3B1cmwub3JnL2RjL2VsZW1lbnRzLzEuMS8iIHhtbG5zOmlua3NjYXBlPSJodHRwOi8vd3d3Lmlua3NjYXBlLm9yZy9uYW1lc3BhY2VzL2lua3NjYXBlIiB4bWxuczpyZGY9Imh0dHA6Ly93d3cudzMub3JnLzE5OTkvMDIvMjItcmRmLXN5bnRheC1ucyMiIHhtbG5zOnNvZGlwb2RpPSJodHRwOi8vc29kaXBvZGkuc291cmNlZm9yZ2UubmV0L0RURC9zb2RpcG9kaS0wLmR0ZCIgeG1sbnM6c3ZnPSJodHRwOi8vd3d3LnczLm9yZy8yMDAwL3N2ZyIgeG1sbnM9Imh0dHA6Ly93d3cudzMub3JnLzIwMDAvc3ZnIiB4bWxuczp4bGluaz0iaHR0cDovL3d3dy53My5vcmcvMTk5OS94bGluayIgdmVyc2lvbj0iMS4xIiBpZD0ic3ZnNTg1MzciIGlua3NjYXBlOnZlcnNpb249IjAuOTIuMyAoMjQwNTU0NiwgMjAxOC0wMy0xMSkiIHNvZGlwb2RpOmRvY25hbWU9ImF6dXJlX2Z1bmN0aW9ucy5zdmciIHg9IjBweCIgeT0iMHB4IiB2aWV3Qm94PSIwIDAgNTcuMzEgNTIuODEiIHN0eWxlPSJlbmFibGUtYmFja2dyb3VuZDpuZXcgMCAwIDU3LjMxIDUyLjgxOyIgeG1sOnNwYWNlPSJwcmVzZXJ2ZSI+JiN4YTs8c29kaXBvZGk6bmFtZWR2aWV3IGJvcmRlcmNvbG9yPSIjNjY2NjY2IiBib3JkZXJvcGFjaXR5PSIxIiBmaXQtbWFyZ2luLWJvdHRvbT0iMCIgZml0LW1hcmdpbi1sZWZ0PSIwIiBmaXQtbWFyZ2luLXJpZ2h0PSIwIiBmaXQtbWFyZ2luLXRvcD0iMCIgZ3JpZHRvbGVyYW5jZT0iMTAiIGd1aWRldG9sZXJhbmNlPSIxMCIgaWQ9Im5hbWVkdmlldzU4NTM5IiBpbmtzY2FwZTpjdXJyZW50LWxheWVyPSJzdmc1ODUzNyIgaW5rc2NhcGU6Y3g9IjM5LjQ3MTQ0MiIgaW5rc2NhcGU6Y3k9IjI2LjM0NTIxNyIgaW5rc2NhcGU6cGFnZW9wYWNpdHk9IjAiIGlua3NjYXBlOnBhZ2VzaGFkb3c9IjIiIGlua3NjYXBlOndpbmRvdy1oZWlnaHQ9IjEwMTciIGlua3NjYXBlOndpbmRvdy1tYXhpbWl6ZWQ9IjEiIGlua3NjYXBlOndpbmRvdy13aWR0aD0iMTkyMCIgaW5rc2NhcGU6d2luZG93LXg9Ii04IiBpbmtzY2FwZTp3aW5kb3cteT0iLTgiIGlua3NjYXBlOnpvb209IjYuMzkxNjgyOCIgb2JqZWN0dG9sZXJhbmNlPSIxMCIgcGFnZWNvbG9yPSIjZmZmZmZmIiBzaG93Z3JpZD0iZmFsc2UiPiYjeGE7CTwvc29kaXBvZGk6bmFtZWR2aWV3PiYjeGE7PGcgaWQ9Imc1ODUzNSIgdHJhbnNmb3JtPSJ0cmFuc2xhdGUoLTkuNTYzNDE2MSwtOS41Njc2MDUyKSI+JiN4YTsJPHRpdGxlIGlkPSJ0aXRsZTU4NTEwIj5QYWdlLTE8L3RpdGxlPiYjeGE7CTxnIGlkPSJncm91cDQ0MzYtMSIgdHJhbnNmb3JtPSJ0cmFuc2xhdGUoOS4zOTU0MywtOS41NjI1KSI+JiN4YTsJCTx0aXRsZSBpZD0idGl0bGU1ODUxMiI+QXp1cmUgRnVuY3Rpb25zLjQzNzwvdGl0bGU+JiN4YTsJCTxnIGlkPSJzaGFwZTQ0MzctMiIgdHJhbnNmb3JtPSJ0cmFuc2xhdGUoMzkuMjA1OSwtMTAuMjkzOCkiPiYjeGE7CQkJPHRpdGxlIGlkPSJ0aXRsZTU4NTE0Ij5TaGVldC40NDM3PC90aXRsZT4mI3hhOwkJCTxwYXRoIGlkPSJwYXRoNTg1MTYiIGlua3NjYXBlOmNvbm5lY3Rvci1jdXJ2YXR1cmU9IjAiIHN0eWxlPSJmaWxsOiMzOTk5QzY7IiBkPSJNMTcuOSw1Ni4xOGMwLjU0LTAuNTMsMC40NS0xLjUyLDAtMi4wNiAgICAgbC0yLjc3LTIuNzdsLTEyLjM2LTEyYy0wLjUzLTAuNTMtMS4zNC0wLjUzLTEuOTYsMGMtMC41NCwwLjU0LTAuNzIsMS41MywwLDIuMDZsMTIuOTcsMTIuNzFjMC41NCwwLjU0LDAuNTQsMS41MywwLDIuMDYgICAgIEwwLjU0LDY5LjM0QzAsNjkuODgsMCw3MC44NiwwLjU0LDcxLjRjMC41MywwLjU0LDEuNTIsMC40NSwxLjk3LDBsMTIuMjYtMTIuMTdjMCwwLDAsMCwwLjA5LTAuMDlMMTcuOSw1Ni4xOHoiLz4mI3hhOwkJPC9nPiYjeGE7CQk8ZyBpZD0ic2hhcGU0NDM4LTQiIHRyYW5zZm9ybT0idHJhbnNsYXRlKDAsLTEwLjI5MzgpIj4mI3hhOwkJCTx0aXRsZSBpZD0idGl0bGU1ODUxOSI+U2hlZXQuNDQzODwvdGl0bGU+JiN4YTsJCQk8cGF0aCBpZD0icGF0aDU4NTIxIiBpbmtzY2FwZTpjb25uZWN0b3ItY3VydmF0dXJlPSIwIiBzdHlsZT0iZmlsbDojMzk5OUM2OyIgZD0iTTAuNTQsNTYuMThjLTAuNTQtMC41My0wLjQ1LTEuNTIsMC0yLjA2ICAgICBsMi43Ny0yLjc3bDEyLjM1LTEyYzAuNTQtMC41MywxLjM1LTAuNTMsMS45NywwYzAuNTQsMC41NCwwLjcyLDEuNTMsMCwyLjA2TDQuOTIsNTQuMTJjLTAuNTMsMC41NC0wLjUzLDEuNTMsMCwyLjA2TDE3LjksNjkuMzQgICAgIGMwLjU0LDAuNTQsMC41NCwxLjUyLDAsMi4wNmMtMC41MywwLjU0LTEuNTIsMC40NS0xLjk3LDBMMy40LDU5LjQxYzAsMCwwLDAtMC4wOS0wLjA5TDAuNTQsNTYuMTh6Ii8+JiN4YTsJCTwvZz4mI3hhOwkJPGcgaWQ9InNoYXBlNDQzOS02IiB0cmFuc2Zvcm09InRyYW5zbGF0ZSgxNS45MzMpIj4mI3hhOwkJCTx0aXRsZSBpZD0idGl0bGU1ODUyNCI+U2hlZXQuNDQzOTwvdGl0bGU+JiN4YTsJCQk8cGF0aCBpZD0icGF0aDU4NTI2IiBpbmtzY2FwZTpjb25uZWN0b3ItY3VydmF0dXJlPSIwIiBzdHlsZT0iZmlsbDojRkNEMTE2OyIgZD0iTTI2Ljg1LDE5LjEzSDkuNEwwLDQ1LjYybDExLjQ2LDAuMDlMMi41MSw3MS45NCAgICAgbDI0LjctMzVIMTUuMjJMMjYuODUsMTkuMTN6Ii8+JiN4YTsJCTwvZz4mI3hhOwkJPGcgaWQ9InNoYXBlNDQ0MC04IiB0cmFuc2Zvcm09InRyYW5zbGF0ZSgxOC40MzkzKSI+JiN4YTsJCQk8dGl0bGUgaWQ9InRpdGxlNTg1MjkiPlNoZWV0LjQ0NDA8L3RpdGxlPiYjeGE7CQkJPHBhdGggaWQ9InBhdGg1ODUzMSIgaW5rc2NhcGU6Y29ubmVjdG9yLWN1cnZhdHVyZT0iMCIgc3R5bGU9ImZpbGw6I0ZGOEMwMDtmaWxsLW9wYWNpdHk6MC4zOyIgZD0iTTEyLjcxLDM2Ljk0bDExLjY0LTE3LjgxICAgICBoLTkuMTNMNS41NSw0MS4xNGwxMS40NiwwLjA5TDAsNzEuOTRsMjQuNzEtMzVMMTIuNzEsMzYuOTR6Ii8+JiN4YTsJCTwvZz4mI3hhOwk8L2c+JiN4YTs8L2c+JiN4YTs8L3N2Zz4=;" parent="1" vertex="1">
          <mxGeometry x="460" y="150" width="57" height="53" as="geometry" />
        </mxCell>
        <mxCell id="1m1OT-jHCipNJAFshmgm-35" style="edgeStyle=orthogonalEdgeStyle;rounded=0;orthogonalLoop=1;jettySize=auto;html=1;exitX=1;exitY=0;exitDx=0;exitDy=0;fontSize=12;fillColor=#d5e8d4;strokeColor=#82b366;" edge="1" parent="1" source="VH2hPDSzOGtYescyWvBb-23">
          <mxGeometry relative="1" as="geometry">
            <mxPoint x="430" y="420" as="targetPoint" />
          </mxGeometry>
        </mxCell>
        <mxCell id="VH2hPDSzOGtYescyWvBb-23" value="Update function" style="shape=image;verticalLabelPosition=bottom;labelBackgroundColor=#ffffff;verticalAlign=top;aspect=fixed;imageAspect=0;image=data:image/svg+xml,PHN2ZyB4bWxuczpjYz0iaHR0cDovL2NyZWF0aXZlY29tbW9ucy5vcmcvbnMjIiB4bWxuczpkYz0iaHR0cDovL3B1cmwub3JnL2RjL2VsZW1lbnRzLzEuMS8iIHhtbG5zOmlua3NjYXBlPSJodHRwOi8vd3d3Lmlua3NjYXBlLm9yZy9uYW1lc3BhY2VzL2lua3NjYXBlIiB4bWxuczpyZGY9Imh0dHA6Ly93d3cudzMub3JnLzE5OTkvMDIvMjItcmRmLXN5bnRheC1ucyMiIHhtbG5zOnNvZGlwb2RpPSJodHRwOi8vc29kaXBvZGkuc291cmNlZm9yZ2UubmV0L0RURC9zb2RpcG9kaS0wLmR0ZCIgeG1sbnM6c3ZnPSJodHRwOi8vd3d3LnczLm9yZy8yMDAwL3N2ZyIgeG1sbnM9Imh0dHA6Ly93d3cudzMub3JnLzIwMDAvc3ZnIiB4bWxuczp4bGluaz0iaHR0cDovL3d3dy53My5vcmcvMTk5OS94bGluayIgdmVyc2lvbj0iMS4xIiBpZD0ic3ZnNTg1MzciIGlua3NjYXBlOnZlcnNpb249IjAuOTIuMyAoMjQwNTU0NiwgMjAxOC0wMy0xMSkiIHNvZGlwb2RpOmRvY25hbWU9ImF6dXJlX2Z1bmN0aW9ucy5zdmciIHg9IjBweCIgeT0iMHB4IiB2aWV3Qm94PSIwIDAgNTcuMzEgNTIuODEiIHN0eWxlPSJlbmFibGUtYmFja2dyb3VuZDpuZXcgMCAwIDU3LjMxIDUyLjgxOyIgeG1sOnNwYWNlPSJwcmVzZXJ2ZSI+JiN4YTs8c29kaXBvZGk6bmFtZWR2aWV3IGJvcmRlcmNvbG9yPSIjNjY2NjY2IiBib3JkZXJvcGFjaXR5PSIxIiBmaXQtbWFyZ2luLWJvdHRvbT0iMCIgZml0LW1hcmdpbi1sZWZ0PSIwIiBmaXQtbWFyZ2luLXJpZ2h0PSIwIiBmaXQtbWFyZ2luLXRvcD0iMCIgZ3JpZHRvbGVyYW5jZT0iMTAiIGd1aWRldG9sZXJhbmNlPSIxMCIgaWQ9Im5hbWVkdmlldzU4NTM5IiBpbmtzY2FwZTpjdXJyZW50LWxheWVyPSJzdmc1ODUzNyIgaW5rc2NhcGU6Y3g9IjM5LjQ3MTQ0MiIgaW5rc2NhcGU6Y3k9IjI2LjM0NTIxNyIgaW5rc2NhcGU6cGFnZW9wYWNpdHk9IjAiIGlua3NjYXBlOnBhZ2VzaGFkb3c9IjIiIGlua3NjYXBlOndpbmRvdy1oZWlnaHQ9IjEwMTciIGlua3NjYXBlOndpbmRvdy1tYXhpbWl6ZWQ9IjEiIGlua3NjYXBlOndpbmRvdy13aWR0aD0iMTkyMCIgaW5rc2NhcGU6d2luZG93LXg9Ii04IiBpbmtzY2FwZTp3aW5kb3cteT0iLTgiIGlua3NjYXBlOnpvb209IjYuMzkxNjgyOCIgb2JqZWN0dG9sZXJhbmNlPSIxMCIgcGFnZWNvbG9yPSIjZmZmZmZmIiBzaG93Z3JpZD0iZmFsc2UiPiYjeGE7CTwvc29kaXBvZGk6bmFtZWR2aWV3PiYjeGE7PGcgaWQ9Imc1ODUzNSIgdHJhbnNmb3JtPSJ0cmFuc2xhdGUoLTkuNTYzNDE2MSwtOS41Njc2MDUyKSI+JiN4YTsJPHRpdGxlIGlkPSJ0aXRsZTU4NTEwIj5QYWdlLTE8L3RpdGxlPiYjeGE7CTxnIGlkPSJncm91cDQ0MzYtMSIgdHJhbnNmb3JtPSJ0cmFuc2xhdGUoOS4zOTU0MywtOS41NjI1KSI+JiN4YTsJCTx0aXRsZSBpZD0idGl0bGU1ODUxMiI+QXp1cmUgRnVuY3Rpb25zLjQzNzwvdGl0bGU+JiN4YTsJCTxnIGlkPSJzaGFwZTQ0MzctMiIgdHJhbnNmb3JtPSJ0cmFuc2xhdGUoMzkuMjA1OSwtMTAuMjkzOCkiPiYjeGE7CQkJPHRpdGxlIGlkPSJ0aXRsZTU4NTE0Ij5TaGVldC40NDM3PC90aXRsZT4mI3hhOwkJCTxwYXRoIGlkPSJwYXRoNTg1MTYiIGlua3NjYXBlOmNvbm5lY3Rvci1jdXJ2YXR1cmU9IjAiIHN0eWxlPSJmaWxsOiMzOTk5QzY7IiBkPSJNMTcuOSw1Ni4xOGMwLjU0LTAuNTMsMC40NS0xLjUyLDAtMi4wNiAgICAgbC0yLjc3LTIuNzdsLTEyLjM2LTEyYy0wLjUzLTAuNTMtMS4zNC0wLjUzLTEuOTYsMGMtMC41NCwwLjU0LTAuNzIsMS41MywwLDIuMDZsMTIuOTcsMTIuNzFjMC41NCwwLjU0LDAuNTQsMS41MywwLDIuMDYgICAgIEwwLjU0LDY5LjM0QzAsNjkuODgsMCw3MC44NiwwLjU0LDcxLjRjMC41MywwLjU0LDEuNTIsMC40NSwxLjk3LDBsMTIuMjYtMTIuMTdjMCwwLDAsMCwwLjA5LTAuMDlMMTcuOSw1Ni4xOHoiLz4mI3hhOwkJPC9nPiYjeGE7CQk8ZyBpZD0ic2hhcGU0NDM4LTQiIHRyYW5zZm9ybT0idHJhbnNsYXRlKDAsLTEwLjI5MzgpIj4mI3hhOwkJCTx0aXRsZSBpZD0idGl0bGU1ODUxOSI+U2hlZXQuNDQzODwvdGl0bGU+JiN4YTsJCQk8cGF0aCBpZD0icGF0aDU4NTIxIiBpbmtzY2FwZTpjb25uZWN0b3ItY3VydmF0dXJlPSIwIiBzdHlsZT0iZmlsbDojMzk5OUM2OyIgZD0iTTAuNTQsNTYuMThjLTAuNTQtMC41My0wLjQ1LTEuNTIsMC0yLjA2ICAgICBsMi43Ny0yLjc3bDEyLjM1LTEyYzAuNTQtMC41MywxLjM1LTAuNTMsMS45NywwYzAuNTQsMC41NCwwLjcyLDEuNTMsMCwyLjA2TDQuOTIsNTQuMTJjLTAuNTMsMC41NC0wLjUzLDEuNTMsMCwyLjA2TDE3LjksNjkuMzQgICAgIGMwLjU0LDAuNTQsMC41NCwxLjUyLDAsMi4wNmMtMC41MywwLjU0LTEuNTIsMC40NS0xLjk3LDBMMy40LDU5LjQxYzAsMCwwLDAtMC4wOS0wLjA5TDAuNTQsNTYuMTh6Ii8+JiN4YTsJCTwvZz4mI3hhOwkJPGcgaWQ9InNoYXBlNDQzOS02IiB0cmFuc2Zvcm09InRyYW5zbGF0ZSgxNS45MzMpIj4mI3hhOwkJCTx0aXRsZSBpZD0idGl0bGU1ODUyNCI+U2hlZXQuNDQzOTwvdGl0bGU+JiN4YTsJCQk8cGF0aCBpZD0icGF0aDU4NTI2IiBpbmtzY2FwZTpjb25uZWN0b3ItY3VydmF0dXJlPSIwIiBzdHlsZT0iZmlsbDojRkNEMTE2OyIgZD0iTTI2Ljg1LDE5LjEzSDkuNEwwLDQ1LjYybDExLjQ2LDAuMDlMMi41MSw3MS45NCAgICAgbDI0LjctMzVIMTUuMjJMMjYuODUsMTkuMTN6Ii8+JiN4YTsJCTwvZz4mI3hhOwkJPGcgaWQ9InNoYXBlNDQ0MC04IiB0cmFuc2Zvcm09InRyYW5zbGF0ZSgxOC40MzkzKSI+JiN4YTsJCQk8dGl0bGUgaWQ9InRpdGxlNTg1MjkiPlNoZWV0LjQ0NDA8L3RpdGxlPiYjeGE7CQkJPHBhdGggaWQ9InBhdGg1ODUzMSIgaW5rc2NhcGU6Y29ubmVjdG9yLWN1cnZhdHVyZT0iMCIgc3R5bGU9ImZpbGw6I0ZGOEMwMDtmaWxsLW9wYWNpdHk6MC4zOyIgZD0iTTEyLjcxLDM2Ljk0bDExLjY0LTE3LjgxICAgICBoLTkuMTNMNS41NSw0MS4xNGwxMS40NiwwLjA5TDAsNzEuOTRsMjQuNzEtMzVMMTIuNzEsMzYuOTR6Ii8+JiN4YTsJCTwvZz4mI3hhOwk8L2c+JiN4YTs8L2c+JiN4YTs8L3N2Zz4=;" parent="1" vertex="1">
          <mxGeometry x="360" y="550" width="57" height="53" as="geometry" />
        </mxCell>
        <mxCell id="VH2hPDSzOGtYescyWvBb-52" style="edgeStyle=orthogonalEdgeStyle;rounded=0;orthogonalLoop=1;jettySize=auto;html=1;exitX=1;exitY=0.5;exitDx=0;exitDy=0;fontSize=15;fillColor=#dae8fc;strokeColor=#6c8ebf;" parent="1" source="VH2hPDSzOGtYescyWvBb-43" edge="1">
          <mxGeometry relative="1" as="geometry">
            <mxPoint x="910" y="62.17647058823536" as="targetPoint" />
          </mxGeometry>
        </mxCell>
        <mxCell id="VH2hPDSzOGtYescyWvBb-43" value="" style="shape=image;verticalLabelPosition=bottom;labelBackgroundColor=#ffffff;verticalAlign=top;aspect=fixed;imageAspect=0;image=data:image/svg+xml,PHN2ZyB4bWxuczpjYz0iaHR0cDovL2NyZWF0aXZlY29tbW9ucy5vcmcvbnMjIiB4bWxuczpkYz0iaHR0cDovL3B1cmwub3JnL2RjL2VsZW1lbnRzLzEuMS8iIHhtbG5zOmlua3NjYXBlPSJodHRwOi8vd3d3Lmlua3NjYXBlLm9yZy9uYW1lc3BhY2VzL2lua3NjYXBlIiB4bWxuczpyZGY9Imh0dHA6Ly93d3cudzMub3JnLzE5OTkvMDIvMjItcmRmLXN5bnRheC1ucyMiIHhtbG5zOnNvZGlwb2RpPSJodHRwOi8vc29kaXBvZGkuc291cmNlZm9yZ2UubmV0L0RURC9zb2RpcG9kaS0wLmR0ZCIgeG1sbnM6c3ZnPSJodHRwOi8vd3d3LnczLm9yZy8yMDAwL3N2ZyIgeG1sbnM9Imh0dHA6Ly93d3cudzMub3JnLzIwMDAvc3ZnIiB4bWxuczp4bGluaz0iaHR0cDovL3d3dy53My5vcmcvMTk5OS94bGluayIgdmVyc2lvbj0iMS4xIiBpZD0ic3ZnMTc1NjcxIiBpbmtzY2FwZTp2ZXJzaW9uPSIwLjkyLjMgKDI0MDU1NDYsIDIwMTgtMDMtMTEpIiBzb2RpcG9kaTpkb2NuYW1lPSJnaXRodWIuc3ZnIiB4PSIwcHgiIHk9IjBweCIgdmlld0JveD0iMCAwIDQ1LjI3IDQ1LjI5IiBzdHlsZT0iZW5hYmxlLWJhY2tncm91bmQ6bmV3IDAgMCA0NS4yNyA0NS4yOTsiIHhtbDpzcGFjZT0icHJlc2VydmUiPiYjeGE7PHNvZGlwb2RpOm5hbWVkdmlldyBib3JkZXJjb2xvcj0iIzY2NjY2NiIgYm9yZGVyb3BhY2l0eT0iMSIgZml0LW1hcmdpbi1ib3R0b209IjAiIGZpdC1tYXJnaW4tbGVmdD0iMCIgZml0LW1hcmdpbi1yaWdodD0iMCIgZml0LW1hcmdpbi10b3A9IjAiIGdyaWR0b2xlcmFuY2U9IjEwIiBndWlkZXRvbGVyYW5jZT0iMTAiIGlkPSJuYW1lZHZpZXcxNzU2NzMiIGlua3NjYXBlOmN1cnJlbnQtbGF5ZXI9InN2ZzE3NTY3MSIgaW5rc2NhcGU6Y3g9IjMwLjE3ODAyNSIgaW5rc2NhcGU6Y3k9IjMwLjE5NDMxOSIgaW5rc2NhcGU6cGFnZW9wYWNpdHk9IjAiIGlua3NjYXBlOnBhZ2VzaGFkb3c9IjIiIGlua3NjYXBlOndpbmRvdy1oZWlnaHQ9IjEwMTciIGlua3NjYXBlOndpbmRvdy1tYXhpbWl6ZWQ9IjEiIGlua3NjYXBlOndpbmRvdy13aWR0aD0iMTkyMCIgaW5rc2NhcGU6d2luZG93LXg9Ii04IiBpbmtzY2FwZTp3aW5kb3cteT0iLTgiIGlua3NjYXBlOnpvb209IjEwLjA5NTE1OCIgb2JqZWN0dG9sZXJhbmNlPSIxMCIgcGFnZWNvbG9yPSIjZmZmZmZmIiBzaG93Z3JpZD0iZmFsc2UiPiYjeGE7CTwvc29kaXBvZGk6bmFtZWR2aWV3PiYjeGE7PGcgaWQ9ImcxNzU2NjkiIHRyYW5zZm9ybT0idHJhbnNsYXRlKC05LjU2MjU0MTcsLTkuNTYxMzEpIj4mI3hhOwk8dGl0bGUgaWQ9InRpdGxlMTc1NjU5Ij5QYWdlLTE8L3RpdGxlPiYjeGE7CTxnIGlkPSJncm91cDIyNTAtMSIgdHJhbnNmb3JtPSJ0cmFuc2xhdGUoOS41NjMwOCwtOS4zNzg2OSkiPiYjeGE7CQk8dGl0bGUgaWQ9InRpdGxlMTc1NjYxIj5HaXRIdWI8L3RpdGxlPiYjeGE7CQk8ZyBpZD0ic2hhcGUyMjUxLTIiPiYjeGE7CQkJPHRpdGxlIGlkPSJ0aXRsZTE3NTY2MyI+U2hlZXQuMjI1MTwvdGl0bGU+JiN4YTsJCQk8cGF0aCBpZD0icGF0aDE3NTY2NSIgaW5rc2NhcGU6Y29ubmVjdG9yLWN1cnZhdHVyZT0iMCIgZD0iTTIyLjYzLDE4Ljk0QzEwLjE0LDE4Ljk0LDAsMjkuMzMsMCw0Mi4xNSAgICAgYy0wLjA3LDkuODksNi4xNSwxOC43MywxNS40OCwyMi4wMWMxLjEzLDAuMjIsMS41NC0wLjUsMS41NC0xLjExYzAtMC42MiwwLTIuMDEsMC0zLjk1Yy02LjI5LDEuNDEtNy42Mi0zLjExLTcuNjItMy4xMSAgICAgYy0xLjAzLTIuNjgtMi41MS0zLjQtMi41MS0zLjRjLTIuMDYtMS40MSwwLjE1LTEuNDEsMC4xNS0xLjQxYzIuMjcsMC4xNiwzLjQ3LDIuMzksMy40NywyLjM5YzIuMDIsMy41NCw1LjMsMi41Miw2LjU4LDEuOTMgICAgIGMwLjEtMS4xNywwLjYtMi4yNiwxLjQyLTMuMUMxMy40OCw1MS44MSw4LjIsNDkuODIsOC4yLDQwLjkyYy0wLjA0LTIuMjksMC43OS00LjUxLDIuMzItNi4yMmMtMC42OS0yLTAuNjEtNC4xOSwwLjIyLTYuMTQgICAgIGMwLDAsMS45MS0wLjYyLDYuMjMsMi40YzMuNy0xLjA0LDcuNjItMS4wNCwxMS4zMiwwYzQuMzItMyw2LjIyLTIuMzcsNi4yMi0yLjM3YzAuODMsMS45NSwwLjkxLDQuMTQsMC4yMiw2LjE0ICAgICBjMS41MywxLjcsMi4zNywzLjkzLDIuMzMsNi4yMmMwLDguOTEtNS4yOSwxMC44OC0xMC4zMywxMS40NWMwLjgxLDAuNzEsMS41MywyLjEyLDEuNTMsNC4zYzAsMy4xMSwwLDUuNjEsMCw2LjM3ICAgICBjMCwwLjYyLDAuNDEsMS4zNCwxLjU2LDEuMTJjOS4zMy0zLjMsMTUuNTMtMTIuMTUsMTUuNDUtMjIuMDRDNDUuMjcsMjkuMzMsMzUuMTMsMTguOTQsMjIuNjMsMTguOTR6Ii8+JiN4YTsJCTwvZz4mI3hhOwk8L2c+JiN4YTs8L2c+JiN4YTs8L3N2Zz4=;fontSize=15;" parent="1" vertex="1">
          <mxGeometry x="770" y="40" width="45" height="45" as="geometry" />
        </mxCell>
        <mxCell id="VH2hPDSzOGtYescyWvBb-44" value="API" style="sketch=0;points=[[0,0,0],[0.25,0,0],[0.5,0,0],[0.75,0,0],[1,0,0],[0,1,0],[0.25,1,0],[0.5,1,0],[0.75,1,0],[1,1,0],[0,0.25,0],[0,0.5,0],[0,0.75,0],[1,0.25,0],[1,0.5,0],[1,0.75,0]];outlineConnect=0;fontColor=#232F3E;gradientColor=#4D72F3;gradientDirection=north;fillColor=#3334B9;strokeColor=#ffffff;dashed=0;verticalLabelPosition=bottom;verticalAlign=top;align=center;html=1;fontSize=12;fontStyle=0;aspect=fixed;shape=mxgraph.aws4.resourceIcon;resIcon=mxgraph.aws4.cloud_control_api;" parent="1" vertex="1">
          <mxGeometry x="660" y="100" width="50" height="50" as="geometry" />
        </mxCell>
        <mxCell id="VH2hPDSzOGtYescyWvBb-51" value="https://recommendations.streamlit.app/" style="verticalLabelPosition=bottom;html=1;verticalAlign=top;align=center;strokeColor=none;fillColor=#00BEF2;shape=mxgraph.azure.website_generic;pointerEvents=1;fontSize=15;" parent="1" vertex="1">
          <mxGeometry x="920" y="28.75" width="80" height="67.5" as="geometry" />
        </mxCell>
        <mxCell id="VH2hPDSzOGtYescyWvBb-70" style="edgeStyle=elbowEdgeStyle;rounded=0;orthogonalLoop=1;jettySize=auto;html=1;exitX=0.5;exitY=0;exitDx=0;exitDy=0;entryX=0;entryY=0.5;entryDx=0;entryDy=0;fontSize=12;fillColor=#dae8fc;strokeColor=#6c8ebf;" parent="1" source="VH2hPDSzOGtYescyWvBb-68" target="VH2hPDSzOGtYescyWvBb-22" edge="1">
          <mxGeometry relative="1" as="geometry">
            <Array as="points">
              <mxPoint x="304" y="200" />
            </Array>
          </mxGeometry>
        </mxCell>
        <mxCell id="VH2hPDSzOGtYescyWvBb-71" value="HTTP trigger" style="edgeLabel;html=1;align=center;verticalAlign=middle;resizable=0;points=[];fontSize=12;" parent="VH2hPDSzOGtYescyWvBb-70" vertex="1" connectable="0">
          <mxGeometry x="-0.1169" relative="1" as="geometry">
            <mxPoint as="offset" />
          </mxGeometry>
        </mxCell>
        <mxCell id="VH2hPDSzOGtYescyWvBb-68" value="HTTP request" style="shape=image;verticalLabelPosition=bottom;labelBackgroundColor=#ffffff;verticalAlign=top;aspect=fixed;imageAspect=0;image=data:image/svg+xml,PHN2ZyB4bWxuczpjYz0iaHR0cDovL2NyZWF0aXZlY29tbW9ucy5vcmcvbnMjIiB4bWxuczpkYz0iaHR0cDovL3B1cmwub3JnL2RjL2VsZW1lbnRzLzEuMS8iIHhtbG5zOmlua3NjYXBlPSJodHRwOi8vd3d3Lmlua3NjYXBlLm9yZy9uYW1lc3BhY2VzL2lua3NjYXBlIiB4bWxuczpyZGY9Imh0dHA6Ly93d3cudzMub3JnLzE5OTkvMDIvMjItcmRmLXN5bnRheC1ucyMiIHhtbG5zOnNvZGlwb2RpPSJodHRwOi8vc29kaXBvZGkuc291cmNlZm9yZ2UubmV0L0RURC9zb2RpcG9kaS0wLmR0ZCIgeG1sbnM6c3ZnPSJodHRwOi8vd3d3LnczLm9yZy8yMDAwL3N2ZyIgeG1sbnM9Imh0dHA6Ly93d3cudzMub3JnLzIwMDAvc3ZnIiB4bWxuczp4bGluaz0iaHR0cDovL3d3dy53My5vcmcvMTk5OS94bGluayIgdmVyc2lvbj0iMS4xIiBpZD0ic3ZnODU1MTkiIGlua3NjYXBlOnZlcnNpb249IjAuOTIuMyAoMjQwNTU0NiwgMjAxOC0wMy0xMSkiIHNvZGlwb2RpOmRvY25hbWU9Imh0dHAuc3ZnIiB4PSIwcHgiIHk9IjBweCIgdmlld0JveD0iMCAwIDQ4IDQ4IiBzdHlsZT0iZW5hYmxlLWJhY2tncm91bmQ6bmV3IDAgMCA0OCA0ODsiIHhtbDpzcGFjZT0icHJlc2VydmUiPiYjeGE7PHNvZGlwb2RpOm5hbWVkdmlldyBib3JkZXJjb2xvcj0iIzY2NjY2NiIgYm9yZGVyb3BhY2l0eT0iMSIgZml0LW1hcmdpbi1ib3R0b209IjAiIGZpdC1tYXJnaW4tbGVmdD0iMCIgZml0LW1hcmdpbi1yaWdodD0iMCIgZml0LW1hcmdpbi10b3A9IjAiIGdyaWR0b2xlcmFuY2U9IjEwIiBndWlkZXRvbGVyYW5jZT0iMTAiIGlkPSJuYW1lZHZpZXc4NTUyMSIgaW5rc2NhcGU6Y3VycmVudC1sYXllcj0ic3ZnODU1MTkiIGlua3NjYXBlOmN4PSIzMi4xMzUwMjQiIGlua3NjYXBlOmN5PSIzMi4wMDA3NjkiIGlua3NjYXBlOnBhZ2VvcGFjaXR5PSIwIiBpbmtzY2FwZTpwYWdlc2hhZG93PSIyIiBpbmtzY2FwZTp3aW5kb3ctaGVpZ2h0PSIxMDE3IiBpbmtzY2FwZTp3aW5kb3ctbWF4aW1pemVkPSIxIiBpbmtzY2FwZTp3aW5kb3ctd2lkdGg9IjE5MjAiIGlua3NjYXBlOndpbmRvdy14PSItOCIgaW5rc2NhcGU6d2luZG93LXk9Ii04IiBpbmtzY2FwZTp6b29tPSIxMy4xMzYzNjQiIG9iamVjdHRvbGVyYW5jZT0iMTAiIHBhZ2Vjb2xvcj0iI2ZmZmZmZiIgc2hvd2dyaWQ9ImZhbHNlIj4mI3hhOwk8L3NvZGlwb2RpOm5hbWVkdmlldz4mI3hhOzxnIGlkPSJnODU1MTciIHRyYW5zZm9ybT0idHJhbnNsYXRlKC0wLjc5NSwtMC43NSkiPiYjeGE7CTx0aXRsZSBpZD0idGl0bGU4NTQ0MCI+UGFnZS0xPC90aXRsZT4mI3hhOwk8ZyBpZD0iZ3JvdXA1MjQ5LTEiIHRyYW5zZm9ybT0idHJhbnNsYXRlKDAuNzk1LC0wLjc1KSI+JiN4YTsJCTx0aXRsZSBpZD0idGl0bGU4NTQ0MiI+SFRUUDwvdGl0bGU+JiN4YTsJCTxnIGlkPSJzaGFwZTUyNTAtMiI+JiN4YTsJCQk8dGl0bGUgaWQ9InRpdGxlODU0NDQiPmNpcmNsZTE1MDU1PC90aXRsZT4mI3hhOwkJCTxjaXJjbGUgaWQ9ImVsbGlwc2U4NTQ0NiIgc3R5bGU9ImZpbGw6I0ZGRkZGRjsiIGN4PSIyNCIgY3k9IjI1LjUiIHI9IjI0Ii8+JiN4YTsJCTwvZz4mI3hhOwkJPGcgaWQ9InNoYXBlNTI1MS00IiB0cmFuc2Zvcm09InRyYW5zbGF0ZSgxLjQ5NzE5LC0xLjMxMjUpIj4mI3hhOwkJCTx0aXRsZSBpZD0idGl0bGU4NTQ0OSI+cGF0aDE1MDU3PC90aXRsZT4mI3hhOwkJCTxwYXRoIGlkPSJwYXRoODU0NTEiIGlua3NjYXBlOmNvbm5lY3Rvci1jdXJ2YXR1cmU9IjAiIHN0eWxlPSJmaWxsOiNGRkZGRkY7IiBkPSJNNDUuMzgsMjYuNjNjMCwwLjA2LDAsMC4xMiwwLDAuMTggICAgIGMwLDEyLjUzLTEwLjE2LDIyLjY5LTIyLjY5LDIyLjY5UzAsMzkuMzQsMCwyNi44MWMwLTAuMDYsMC0wLjEyLDAtMC4xOEMwLDE0LjEsMTAuMTYsMy45NCwyMi42OSwzLjk0UzQ1LjM4LDE0LjEsNDUuMzgsMjYuNjN6Ii8+JiN4YTsJCTwvZz4mI3hhOwkJPGcgaWQ9InNoYXBlNTI1Mi02IiB0cmFuc2Zvcm09InRyYW5zbGF0ZSg0LjE2MjUsLTM1LjI1KSI+JiN4YTsJCQk8dGl0bGUgaWQ9InRpdGxlODU0NTQiPnBhdGgxNTA1OTwvdGl0bGU+JiN4YTsJCQk8cGF0aCBpZD0icGF0aDg1NDU2IiBpbmtzY2FwZTpjb25uZWN0b3ItY3VydmF0dXJlPSIwIiBzdHlsZT0iZmlsbDpub25lOyIgZD0iTTAsNDcuN2MzLjI1LDEuMDUsMTAuODQsMS44LDE5Ljc1LDEuOCAgICAgYzguNjUsMCwxNi4xMS0wLjcsMTkuNS0xLjcyTDAsNDcuN3oiLz4mI3hhOwkJCSYjeGE7CQkJCTxwYXRoIGlkPSJwYXRoODU0NTgiIGlua3NjYXBlOmNvbm5lY3Rvci1jdXJ2YXR1cmU9IjAiIHN0eWxlPSJmaWxsOm5vbmU7c3Ryb2tlOiNEM0QzRDM7c3Ryb2tlLXdpZHRoOjEuNTtzdHJva2UtbWl0ZXJsaW1pdDozOyIgZD0iICAgICBNMCw0Ny43YzMuMjUsMS4wNSwxMC44NCwxLjgsMTkuNzUsMS44YzguNjUsMCwxNi4xMS0wLjcsMTkuNS0xLjcyIi8+JiN4YTsJCTwvZz4mI3hhOwkJPGcgaWQ9InNoYXBlNTI1My05IiB0cmFuc2Zvcm09InRyYW5zbGF0ZSgxMy40NCwtMjIuNzcpIj4mI3hhOwkJCTx0aXRsZSBpZD0idGl0bGU4NTQ2MSI+cGF0aDE1MDYxPC90aXRsZT4mI3hhOwkJCTxwYXRoIGlkPSJwYXRoODU0NjMiIGlua3NjYXBlOmNvbm5lY3Rvci1jdXJ2YXR1cmU9IjAiIHN0eWxlPSJmaWxsOiNEM0QzRDM7IiBkPSJNMTAuNTYsMjYuMjVjNC4yMSwwLDguODgsOC45LDkuMDUsMjEuNzVIMS41MSAgICAgQzEuNjgsMzUuMTUsNi4zNiwyNi4yNSwxMC41NiwyNi4yNXogTTEwLjU2LDI0Ljc1QzQuNzIsMjQuNzUsMCwzNS41LDAsNDguNzVjMCwwLjI2LDAsMC41LDAsMC43NWgyMS4xMWMwLTAuMjUsMC0wLjQ5LDAtMC43NSAgICAgYzAtMTMuMjUtNC43Mi0yNC0xMC41Ni0yNEgxMC41NnoiLz4mI3hhOwkJPC9nPiYjeGE7CQk8ZyBpZD0ic2hhcGU1MjU0LTExIiB0cmFuc2Zvcm09InRyYW5zbGF0ZSgxLjEzMjUsLTEuMTI1KSI+JiN4YTsJCQk8dGl0bGUgaWQ9InRpdGxlODU0NjYiPnBhdGgxNTA2MzwvdGl0bGU+JiN4YTsJCQk8cGF0aCBpZD0icGF0aDg1NDY4IiBpbmtzY2FwZTpjb25uZWN0b3ItY3VydmF0dXJlPSIwIiBzdHlsZT0iZmlsbDojNTVEMkY2OyIgZD0iTTIzLjA1LDQ5LjVDMTAuNCw0OS40NywwLjEzLDM5LjI3LDAsMjYuNjMgICAgIHYtMC4zOGg0Ni4xMnYwLjM4QzQ1Ljk5LDM5LjI4LDM1LjcsNDkuNDgsMjMuMDUsNDkuNXoiLz4mI3hhOwkJPC9nPiYjeGE7CQk8ZyBpZD0ic2hhcGU1MjU1LTEzIiB0cmFuc2Zvcm09InRyYW5zbGF0ZSgxLjUsLTcuMDI5NDQpIj4mI3hhOwkJCTx0aXRsZSBpZD0idGl0bGU4NTQ3MSI+cGF0aDE1MDY1PC90aXRsZT4mI3hhOwkJCTxwYXRoIGlkPSJwYXRoODU0NzMiIGlua3NjYXBlOmNvbm5lY3Rvci1jdXJ2YXR1cmU9IjAiIHN0eWxlPSJmaWxsOiM1NTZBOEE7IiBkPSJNMjIuNSwxMC4wM2MxMi40MywwLDIyLjUsMTAuMDcsMjIuNSwyMi41ICAgICBzLTEwLjA3LDIyLjUtMjIuNSwyMi41UzAsNDQuOTYsMCwzMi41M2wwLDBDMCwyMC4xLDEwLjA3LDEwLjAzLDIyLjUsMTAuMDN6IE0yMi41LDguNTNjLTEzLjI1LDAtMjQsMTAuNzUtMjQsMjRzMTAuNzUsMjQsMjQsMjQgICAgIHMyNC0xMC43NSwyNC0yNGwwLDBDNDYuNSwxOS4yOCwzNS43NSw4LjUzLDIyLjUsOC41M3oiLz4mI3hhOwkJPC9nPiYjeGE7CQk8ZyBpZD0ic2hhcGU1MjU2LTE1IiB0cmFuc2Zvcm09InRyYW5zbGF0ZSg0LjE2MjUsLTExLjc2KSI+JiN4YTsJCQk8dGl0bGUgaWQ9InRpdGxlODU0NzYiPnBhdGgxNTA2NzwvdGl0bGU+JiN4YTsJCQk8cGF0aCBpZD0icGF0aDg1NDc4IiBpbmtzY2FwZTpjb25uZWN0b3ItY3VydmF0dXJlPSIwIiBzdHlsZT0iZmlsbDpub25lOyIgZD0iTTAsNDkuNWMzLjI1LTEuMDYsMTAuODctMS44LDE5Ljc1LTEuOCAgICAgYzguNjUsMCwxNi4xMSwwLjcxLDE5LjUsMS43M0wwLDQ5LjV6Ii8+JiN4YTsJCQkmI3hhOwkJCQk8cGF0aCBpZD0icGF0aDg1NDgwIiBpbmtzY2FwZTpjb25uZWN0b3ItY3VydmF0dXJlPSIwIiBzdHlsZT0iZmlsbDpub25lO3N0cm9rZTojNTU2QThBO3N0cm9rZS13aWR0aDoxLjU7c3Ryb2tlLW1pdGVybGltaXQ6MzsiIGQ9IiAgICAgTTAsNDkuNWMzLjI1LTEuMDYsMTAuODctMS44LDE5Ljc1LTEuOGM4LjY1LDAsMTYuMTEsMC43MSwxOS41LDEuNzMiLz4mI3hhOwkJPC9nPiYjeGE7CQk8ZyBpZD0ic2hhcGU1MjU3LTE4IiB0cmFuc2Zvcm09InRyYW5zbGF0ZSgwLjcwNSwtMjQpIj4mI3hhOwkJCTx0aXRsZSBpZD0idGl0bGU4NTQ4MyI+bGluZTE1MDY5PC90aXRsZT4mI3hhOwkJCSYjeGE7CQkJCTxwYXRoIGlkPSJwYXRoODU0ODUiIGlua3NjYXBlOmNvbm5lY3Rvci1jdXJ2YXR1cmU9IjAiIHN0eWxlPSJmaWxsOm5vbmU7c3Ryb2tlOiM1NTZBOEE7c3Ryb2tlLXdpZHRoOjEuNTtzdHJva2UtbWl0ZXJsaW1pdDozOyIgZD0iICAgICBNMCw0OS41aDQ2Ljc5Ii8+JiN4YTsJCTwvZz4mI3hhOwkJPGcgaWQ9Imdyb3VwNTI1OC0yMSIgdHJhbnNmb3JtPSJ0cmFuc2xhdGUoOC42Nzc1LC0yNi43NTI1KSI+JiN4YTsJCQk8dGl0bGUgaWQ9InRpdGxlODU0ODgiPmcxNTA3OTwvdGl0bGU+JiN4YTsJCQk8ZyBpZD0ic2hhcGU1MjU5LTIyIj4mI3hhOwkJCQk8dGl0bGUgaWQ9InRpdGxlODU0OTAiPnBhdGgxNTA3MTwvdGl0bGU+JiN4YTsJCQkJPHBhdGggaWQ9InBhdGg4NTQ5MiIgaW5rc2NhcGU6Y29ubmVjdG9yLWN1cnZhdHVyZT0iMCIgc3R5bGU9ImZpbGw6IzU1NkE4QTsiIGQ9Ik03LjU5LDQ5LjQ5SDYuMDFWNDUuNEgxLjU3djQuMUgwdi05LjQ2aDEuNTcgICAgICBWNDRoNC40NHYtMy45N2gxLjU4VjQ5LjQ5eiIvPiYjeGE7CQkJPC9nPiYjeGE7CQkJPGcgaWQ9InNoYXBlNTI2MC0yNCIgdHJhbnNmb3JtPSJ0cmFuc2xhdGUoOSwtMC4wMDc1KSI+JiN4YTsJCQkJPHRpdGxlIGlkPSJ0aXRsZTg1NDk1Ij5wYXRoMTUwNzM8L3RpdGxlPiYjeGE7CQkJCTxwYXRoIGlkPSJwYXRoODU0OTciIGlua3NjYXBlOmNvbm5lY3Rvci1jdXJ2YXR1cmU9IjAiIHN0eWxlPSJmaWxsOiM1NTZBOEE7IiBkPSJNNi45OSw0MS4zOUg0LjI3djguMTFIMi43MXYtOC4xMUgwdi0xLjM0aDcgICAgICBMNi45OSw0MS4zOXoiLz4mI3hhOwkJCTwvZz4mI3hhOwkJCTxnIGlkPSJzaGFwZTUyNjEtMjYiIHRyYW5zZm9ybT0idHJhbnNsYXRlKDE2LjcxLC0wLjAwNzUpIj4mI3hhOwkJCQk8dGl0bGUgaWQ9InRpdGxlODU1MDAiPnBhdGgxNTA3NTwvdGl0bGU+JiN4YTsJCQkJPHBhdGggaWQ9InBhdGg4NTUwMiIgaW5rc2NhcGU6Y29ubmVjdG9yLWN1cnZhdHVyZT0iMCIgc3R5bGU9ImZpbGw6IzU1NkE4QTsiIGQ9Ik02Ljk5LDQxLjM5SDQuMjd2OC4xMUgyLjcxdi04LjExSDB2LTEuMzRoNyAgICAgIEw2Ljk5LDQxLjM5eiIvPiYjeGE7CQkJPC9nPiYjeGE7CQkJPGcgaWQ9InNoYXBlNTI2Mi0yOCIgdHJhbnNmb3JtPSJ0cmFuc2xhdGUoMjUuMDcyNSwtMC4wMDc1KSI+JiN4YTsJCQkJPHRpdGxlIGlkPSJ0aXRsZTg1NTA1Ij5wYXRoMTUwNzc8L3RpdGxlPiYjeGE7CQkJCTxwYXRoIGlkPSJwYXRoODU1MDciIGlua3NjYXBlOmNvbm5lY3Rvci1jdXJ2YXR1cmU9IjAiIHN0eWxlPSJmaWxsOiM1NTZBOEE7IiBkPSJNMS41Nyw0Ni4wN3YzLjQzSDB2LTkuNDVoMi44NiAgICAgIGMwLjkxLTAuMDYsMS44LDAuMjEsMi41MywwLjc1YzAuNjEsMC41NCwwLjk1LDEuMzMsMC45LDIuMTRjMC4wMywwLjg1LTAuMzIsMS42Ny0wLjk0LDIuMjVjLTAuNjksMC42MS0xLjYsMC45My0yLjUyLDAuODhIMS41NyAgICAgIHogTTEuNTcsNDEuMzR2My40MmgxLjAyYzAuNTQsMC4wMywxLjA3LTAuMTMsMS41LTAuNDZjMC4zNi0wLjM0LDAuNTUtMC44MiwwLjUyLTEuMzJjMC0xLjExLTAuNjQtMS42Ny0xLjkzLTEuNjdMMS41Nyw0MS4zNHoiLz4mI3hhOwkJCTwvZz4mI3hhOwkJPC9nPiYjeGE7CQk8ZyBpZD0ic2hhcGU1MjYzLTMwIiB0cmFuc2Zvcm09InRyYW5zbGF0ZSgxMy40NDc1KSI+JiN4YTsJCQk8dGl0bGUgaWQ9InRpdGxlODU1MTEiPnBhdGgxNTA4MTwvdGl0bGU+JiN4YTsJCQk8cGF0aCBpZD0icGF0aDg1NTEzIiBpbmtzY2FwZTpjb25uZWN0b3ItY3VydmF0dXJlPSIwIiBzdHlsZT0iZmlsbDojNTU2QThBOyIgZD0iTTE5LjYsMjYuMjVDMTkuNDMsMzkuMTEsMTQuNzYsNDgsMTAuNTUsNDggICAgIFMxLjY3LDM5LjExLDEuNSwyNi4yNUgxOS42eiBNMjEuMSwyNC43NUgwYzAsMC4yNSwwLDAuNSwwLDAuNzVjMCwxMy4yNSw0LjcyLDI0LDEwLjU2LDI0YzUuODMsMCwxMC41NS0xMC43NSwxMC41NS0yNCAgICAgYzAtMC4yNSwwLTAuNSwwLTAuNzVIMjEuMXoiLz4mI3hhOwkJPC9nPiYjeGE7CTwvZz4mI3hhOzwvZz4mI3hhOzwvc3ZnPg==;fontSize=12;" parent="1" vertex="1">
          <mxGeometry x="280" y="366" width="48" height="48" as="geometry" />
        </mxCell>
        <mxCell id="1m1OT-jHCipNJAFshmgm-11" value="" style="edgeStyle=orthogonalEdgeStyle;rounded=0;orthogonalLoop=1;jettySize=auto;html=1;fontSize=12;fillColor=#dae8fc;strokeColor=#6c8ebf;" edge="1" parent="1" source="1m1OT-jHCipNJAFshmgm-9" target="1m1OT-jHCipNJAFshmgm-10">
          <mxGeometry relative="1" as="geometry" />
        </mxCell>
        <mxCell id="1m1OT-jHCipNJAFshmgm-17" style="edgeStyle=orthogonalEdgeStyle;rounded=0;orthogonalLoop=1;jettySize=auto;html=1;fontSize=12;fillColor=#d5e8d4;strokeColor=#82b366;" edge="1" parent="1" source="1m1OT-jHCipNJAFshmgm-9">
          <mxGeometry relative="1" as="geometry">
            <mxPoint x="370" y="560" as="targetPoint" />
            <Array as="points">
              <mxPoint x="370" y="336" />
              <mxPoint x="370" y="560" />
            </Array>
          </mxGeometry>
        </mxCell>
        <mxCell id="1m1OT-jHCipNJAFshmgm-18" value="Blob trigger" style="edgeLabel;html=1;align=center;verticalAlign=middle;resizable=0;points=[];fontSize=12;" vertex="1" connectable="0" parent="1m1OT-jHCipNJAFshmgm-17">
          <mxGeometry x="0.3564" y="-1" relative="1" as="geometry">
            <mxPoint y="1" as="offset" />
          </mxGeometry>
        </mxCell>
        <mxCell id="1m1OT-jHCipNJAFshmgm-9" value="Azure blob storage" style="shape=image;verticalLabelPosition=bottom;labelBackgroundColor=#ffffff;verticalAlign=top;aspect=fixed;imageAspect=0;image=data:image/svg+xml,PHN2ZyB4bWxuczpjYz0iaHR0cDovL2NyZWF0aXZlY29tbW9ucy5vcmcvbnMjIiB4bWxuczpkYz0iaHR0cDovL3B1cmwub3JnL2RjL2VsZW1lbnRzLzEuMS8iIHhtbG5zOmlua3NjYXBlPSJodHRwOi8vd3d3Lmlua3NjYXBlLm9yZy9uYW1lc3BhY2VzL2lua3NjYXBlIiB4bWxuczpyZGY9Imh0dHA6Ly93d3cudzMub3JnLzE5OTkvMDIvMjItcmRmLXN5bnRheC1ucyMiIHhtbG5zOnNvZGlwb2RpPSJodHRwOi8vc29kaXBvZGkuc291cmNlZm9yZ2UubmV0L0RURC9zb2RpcG9kaS0wLmR0ZCIgeG1sbnM6c3ZnPSJodHRwOi8vd3d3LnczLm9yZy8yMDAwL3N2ZyIgeG1sbnM9Imh0dHA6Ly93d3cudzMub3JnLzIwMDAvc3ZnIiB4bWxuczp4bGluaz0iaHR0cDovL3d3dy53My5vcmcvMTk5OS94bGluayIgdmVyc2lvbj0iMS4xIiBpZD0ic3ZnMTA5Mjk0IiBpbmtzY2FwZTp2ZXJzaW9uPSIwLjkyLjMgKDI0MDU1NDYsIDIwMTgtMDMtMTEpIiBzb2RpcG9kaTpkb2NuYW1lPSJhenVyZV9ibG9iX3N0b3JhZ2Uuc3ZnIiB4PSIwcHgiIHk9IjBweCIgdmlld0JveD0iMCAwIDc2LjQyIDY2LjMiIHN0eWxlPSJlbmFibGUtYmFja2dyb3VuZDpuZXcgMCAwIDc2LjQyIDY2LjM7IiB4bWw6c3BhY2U9InByZXNlcnZlIj4mI3hhOzxzb2RpcG9kaTpuYW1lZHZpZXcgYm9yZGVyY29sb3I9IiM2NjY2NjYiIGJvcmRlcm9wYWNpdHk9IjEiIGZpdC1tYXJnaW4tYm90dG9tPSIwIiBmaXQtbWFyZ2luLWxlZnQ9IjAiIGZpdC1tYXJnaW4tcmlnaHQ9IjAiIGZpdC1tYXJnaW4tdG9wPSIwIiBncmlkdG9sZXJhbmNlPSIxMCIgZ3VpZGV0b2xlcmFuY2U9IjEwIiBpZD0ibmFtZWR2aWV3MTA5Mjk2IiBpbmtzY2FwZTpjdXJyZW50LWxheWVyPSJzdmcxMDkyOTQiIGlua3NjYXBlOmN4PSI1MC45NDUxOTMiIGlua3NjYXBlOmN5PSI0NC4xOTk1NTEiIGlua3NjYXBlOnBhZ2VvcGFjaXR5PSIwIiBpbmtzY2FwZTpwYWdlc2hhZG93PSIyIiBpbmtzY2FwZTp3aW5kb3ctaGVpZ2h0PSIxMDE3IiBpbmtzY2FwZTp3aW5kb3ctbWF4aW1pemVkPSIxIiBpbmtzY2FwZTp3aW5kb3ctd2lkdGg9IjE5MjAiIGlua3NjYXBlOndpbmRvdy14PSItOCIgaW5rc2NhcGU6d2luZG93LXk9Ii04IiBpbmtzY2FwZTp6b29tPSI4Ljc0NjA0MTEiIG9iamVjdHRvbGVyYW5jZT0iMTAiIHBhZ2Vjb2xvcj0iI2ZmZmZmZiIgc2hvd2dyaWQ9ImZhbHNlIj4mI3hhOwk8L3NvZGlwb2RpOm5hbWVkdmlldz4mI3hhOzxnIGlkPSJnMTA5MjkyIiB0cmFuc2Zvcm09InRyYW5zbGF0ZSgtNC4wMjYzMiwtNC4wMjM4NzY1KSI+JiN4YTsJPHRpdGxlIGlkPSJ0aXRsZTEwOTI2NCI+UGFnZS0xPC90aXRsZT4mI3hhOwk8ZyBpZD0iZ3JvdXAyNjQtMSIgdHJhbnNmb3JtPSJ0cmFuc2xhdGUoNC4wMjYzMiwtNC4wMjYzMikiPiYjeGE7CQk8dGl0bGUgaWQ9InRpdGxlMTA5MjY2Ij5BenVyZSBCbG9iIFN0b3JhZ2UgKERlcHJlY2F0ZWQpPC90aXRsZT4mI3hhOwkJPGcgaWQ9Imdyb3VwMjY1LTIiPiYjeGE7CQkJPHRpdGxlIGlkPSJ0aXRsZTEwOTI2OCI+U2hlZXQuMjY1PC90aXRsZT4mI3hhOwkJCTxnIGlkPSJzaGFwZTI2Ni0zIj4mI3hhOwkJCQk8dGl0bGUgaWQ9InRpdGxlMTA5MjcwIj5TaGVldC4yNjY8L3RpdGxlPiYjeGE7CQkJCTxwYXRoIGlkPSJwYXRoMTA5MjcyIiBpbmtzY2FwZTpjb25uZWN0b3ItY3VydmF0dXJlPSIwIiBzdHlsZT0iZmlsbDojMDA3OEQ3OyIgZD0iTTU3LjM2LDguMDVIMTkuMDVMMCw0MS4ybDE5LjA1LDMzLjE1aDM4LjMxICAgICAgTDc2LjQyLDQxLjJMNTcuMzYsOC4wNXogTTU3LjU2LDU2LjA5YzAsMi43OC0yLjM4LDUuMTYtNS4xNiw1LjE2SDI0LjIyYy0yLjc4LDAtNS4xNy0yLjM4LTUuMTctNS4xNlYyNi41MSAgICAgIGMwLTIuNzgsMi4zOS01LjE2LDUuMTctNS4xNmgyMC44NGMxLjk4LDAsMy45NywwLDMuOTcsMGgwLjU5bDcuOTQsNy45NHY0LjE3TDU3LjU2LDU2LjA5eiIvPiYjeGE7CQkJPC9nPiYjeGE7CQkJPGcgaWQ9InNoYXBlMjY3LTUiIHRyYW5zZm9ybT0idHJhbnNsYXRlKDMyLjE1NTEsLTIxLjQzNjgpIj4mI3hhOwkJCQk8dGl0bGUgaWQ9InRpdGxlMTA5Mjc1Ij5TaGVldC4yNjc8L3RpdGxlPiYjeGE7CQkJCTxwYXRoIGlkPSJwYXRoMTA5Mjc3IiBpbmtzY2FwZTpjb25uZWN0b3ItY3VydmF0dXJlPSIwIiBzdHlsZT0iZmlsbDojMDA3OEQ3OyIgZD0iTTMuMTgsNjhjMC0wLjQtMC4yLTAuNi0wLjItMC44ICAgICAgYzAtMC4yLTAuMi0wLjM5LTAuNC0wLjU5cy0wLjItMC4yLTAuNC0wLjJzLTAuMzksMC0wLjU5LDBjLTAuNCwwLTAuNiwwLTAuOCwwLjJDMC42LDY2LjgxLDAuNCw2NywwLjIsNjcuNFMwLDY4LjE5LDAsNjguNTkgICAgICBjMCwwLjQsMCwwLjk5LDAsMS43OWMwLDAuNzksMCwxLjM5LDAsMS45OGMwLDAuNiwwLjIsMSwwLjQsMS4xOWMwLjIsMC40LDAuMzksMC42LDAuNTksMC42YzAuMiwwLjIsMC40LDAuMiwwLjgsMC4yICAgICAgYzAuMTksMCwwLjM5LDAsMC41OS0wLjJjMC4yLDAsMC40LTAuMiwwLjQtMC40YzAuMi0wLjIsMC4yLTAuMzksMC40LTAuNTljMC0wLjIsMC4xOS0wLjQsMC4xOS0wLjhjMC0wLjIsMC0wLjU5LDAuMi0wLjk5ICAgICAgYzAtMC40LDAtMC43OSwwLTEuMTljMC0wLjYsMC0wLjk5LDAtMS4zOUMzLjE4LDY4LjU5LDMuMTgsNjguMzksMy4xOCw2OHoiLz4mI3hhOwkJCTwvZz4mI3hhOwkJCTxnIGlkPSJzaGFwZTI2OC03IiB0cmFuc2Zvcm09InRyYW5zbGF0ZSg0MS4wODcxLC0zNi45MTg5KSI+JiN4YTsJCQkJPHRpdGxlIGlkPSJ0aXRsZTEwOTI4MCI+U2hlZXQuMjY4PC90aXRsZT4mI3hhOwkJCQk8cGF0aCBpZD0icGF0aDEwOTI4MiIgaW5rc2NhcGU6Y29ubmVjdG9yLWN1cnZhdHVyZT0iMCIgc3R5bGU9ImZpbGw6IzAwNzhENzsiIGQ9Ik0zLjE4LDY4YzAtMC40LTAuMi0wLjYtMC4yLTAuOCAgICAgIGMwLTAuMi0wLjItMC4zOS0wLjQtMC41OXMtMC4yLTAuMi0wLjQtMC4ycy0wLjM5LDAtMC41OSwwYy0wLjQsMC0wLjYsMC0wLjgsMC4yQzAuNiw2Ni44MSwwLjQsNjcsMC4yLDY3LjRTMCw2OC4xOSwwLDY4LjU5ICAgICAgYzAsMC40LDAsMC45OSwwLDEuNzljMCwwLjc5LDAsMS4zOSwwLDEuOThjMCwwLjYsMC4yLDEsMC40LDEuMTljMC4yLDAuNCwwLjM5LDAuNiwwLjU5LDAuNmMwLjIsMC4yLDAuNCwwLjIsMC44LDAuMiAgICAgIGMwLjE5LDAsMC4zOSwwLDAuNTktMC4yYzAuMiwwLDAuNC0wLjIsMC40LTAuNGMwLjItMC4yLDAuMi0wLjM5LDAuNC0wLjU5YzAtMC4yLDAuMTktMC40LDAuMTktMC44YzAtMC4yLDAtMC41OSwwLjItMC45OSAgICAgIGMwLTAuNCwwLTAuNzksMC0xLjE5YzAtMC42LDAtMC45OSwwLTEuMzlDMy4zNyw2OC43OSwzLjM3LDY4LjM5LDMuMTgsNjh6Ii8+JiN4YTsJCQk8L2c+JiN4YTsJCQk8ZyBpZD0ic2hhcGUyNjktOSIgdHJhbnNmb3JtPSJ0cmFuc2xhdGUoMjEuODMzNywtMTUuODc5MSkiPiYjeGE7CQkJCTx0aXRsZSBpZD0idGl0bGUxMDkyODUiPlNoZWV0LjI2OTwvdGl0bGU+JiN4YTsJCQkJPHBhdGggaWQ9InBhdGgxMDkyODciIGlua3NjYXBlOmNvbm5lY3Rvci1jdXJ2YXR1cmU9IjAiIHN0eWxlPSJmaWxsOiMwMDc4RDc7IiBkPSJNMjYuNCw0MC4wMWMtMC43OSwwLTEuOTksMC0zLjE4LDBIMi4zOCAgICAgIEMwLjk5LDQwLjAxLDAsNDEsMCw0Mi4zOXYyOS41OGMwLDEuMzksMC45OSwyLjM4LDIuMzgsMi4zOGgyOC4xOWMxLjE5LDAsMi4zOC0wLjk5LDIuMzgtMi4zOFY0Ni41NkgyNi42di02LjU1SDI2LjR6ICAgICAgIE04LjczLDQ1Ljk2di0wLjE5di0wLjJjMCwwLDAsMCwwLjItMC4ybDIuMzgtMS41OWMwLDAsMCwwLDAuMiwwaDAuMmgwLjJjMC4yLDAsMC4yLDAsMC40LDBjMC4xOSwwLDAuMzksMCwwLjU5LDBzMC4yLDAsMC40LDAgICAgICBoMC4yYzAsMCwwLDAsMCwwLjJ2OS4zM2gxLjc4aDAuMmMwLDAsMCwwLDAuMiwwLjJjMC4yLDAuMTksMCwwLjE5LDAsMC4xOWMwLDAuMiwwLDAuMiwwLDAuNHMwLDAuNCwwLDAuNGMwLDAuMiwwLDAuMiwwLDAuMiAgICAgIHMwLDAuMi0wLjIsMC4yYzAsMCwwLDAtMC4yLDBIOS4xM2MwLDAsMCwwLTAuMiwwYzAsMCwwLDAtMC4yLTAuMnYtMC4yYzAtMC4yLDAtMC4yLDAtMC40czAtMC40LDAtMC40YzAtMC4xOSwwLTAuMTksMC0wLjE5ICAgICAgczAtMC4yLDAuMi0wLjJjMCwwLDAsMCwwLjIsMGgyLjE4di03LjM1bC0xLjc4LDFjLTAuMiwwLTAuMiwwLjE5LTAuNCwwLjE5aC0wLjJjMCwwLDAtMC4xOS0wLjItMC4xOWMwLTAuMiwwLTAuMiwwLTAuNiAgICAgIEM4LjczLDQ2LjE2LDguNzMsNDUuOTYsOC43Myw0NS45NnogTTE1LjY4LDY3LjJjLTAuMiwwLjgtMC40LDEuMzktMC43OSwxLjc5Yy0wLjQsMC41OS0wLjgsMC45OS0xLjE5LDEuMTkgICAgICBjLTAuNiwwLjItMS4yLDAuNC0xLjk5LDAuNHMtMS4zOS0wLjItMS45OC0wLjRjLTAuNi0wLjItMS0wLjYtMS4xOS0xLjE5Yy0wLjItMC42LTAuNi0xLjE5LTAuNi0xLjc5ICAgICAgYy0wLjItMC43OS0wLjItMS41OS0wLjItMi4zOGMwLTAuOTksMC0xLjc5LDAuMi0yLjM4YzAuMi0wLjgsMC40LTEuMzksMC43OS0xLjc5YzAuNC0wLjM5LDAuOC0wLjk5LDEuMTktMS4xOSAgICAgIGMwLjYtMC4yLDEuMi0wLjQsMS45OS0wLjRzMS4zOSwwLjIsMS45OCwwLjRjMC42LDAuMiwxLDAuNiwxLjIsMS4xOWMwLjE5LDAuNiwwLjU5LDEuMTksMC41OSwxLjc5YzAuMiwwLjc5LDAuMiwxLjU5LDAuMiwyLjM4ICAgICAgQzE1Ljg4LDY1LjgxLDE1Ljg4LDY2LjYxLDE1LjY4LDY3LjJ6IE0yNC42MSw2OS45OGMwLDAuMiwwLDAuMiwwLDAuMnMwLDAuMi0wLjIsMC4yYzAsMCwwLDAtMC4xOSwwaC02LjE2YzAsMCwwLDAtMC4yLDAgICAgICBjMCwwLDAsMC0wLjE5LTAuMnYtMC4yYzAtMC4yLDAtMC4yLDAtMC40YzAtMC4xOSwwLTAuMzksMC0wLjM5YzAtMC4yLDAtMC4yLDAtMC4yczAtMC4yLDAuMTktMC4yYzAsMCwwLDAsMC4yLDBoMi4xOXYtNy4zNCAgICAgIGwtMS43OSwwLjk5Yy0wLjIsMC0wLjIsMC4yLTAuNCwwLjJoLTAuMmMwLDAsMC0wLjItMC4xOS0wLjJjMC0wLjIsMC0wLjIsMC0wLjZjMC0wLjIsMC0wLjIsMC0wLjM5di0wLjJ2LTAuMmMwLDAsMCwwLDAuMTktMC4yICAgICAgbDIuMzktMS41OWMwLDAsMCwwLDAuMTksMGgwLjJoMC4yYzAuMiwwLDAuMiwwLDAuNCwwYzAuMiwwLDAuNCwwLDAuNTksMGMwLjIsMCwwLjIsMCwwLjQsMGgwLjJjMCwwLDAsMCwwLDAuMnY5LjMzaDEuNzloMC4xOSAgICAgIGMwLDAsMCwwLDAuMiwwLjJ2MC4yYzAsMC4yLDAsMC4yLDAsMC4zOUMyNC42MSw2OS43OCwyNC42MSw2OS45OCwyNC42MSw2OS45OHogTTI0LjgxLDUxLjcyYy0wLjIsMC43OS0wLjQsMS4zOS0wLjc5LDEuNzkgICAgICBjLTAuNCwwLjU5LTAuOCwwLjk5LTEuMTksMS4xOWMtMC42LDAuMi0xLjE5LDAuMzktMS45OSwwLjM5Yy0wLjc5LDAtMS4zOS0wLjE5LTEuOTgtMC4zOWMtMC42LTAuMi0xLTAuNi0xLjE5LTEuMTkgICAgICBjLTAuMi0wLjQtMC42LTEuMTktMC42LTEuNzljMC0wLjYtMC4yLTEuNTktMC4yLTIuMzhjMC0wLjk5LDAtMS43OSwwLjItMi4zOGMwLjItMC44LDAuNC0xLjM5LDAuNzktMS43OSAgICAgIGMwLjQtMC42LDAuOC0wLjk5LDEuMTktMS4xOWMwLjYtMC4yLDEuMi0wLjQsMS45OS0wLjRjMC43OSwwLDEuMzksMC4yLDEuOTgsMC40YzAuNiwwLjIsMSwwLjU5LDEuMiwxLjE5ICAgICAgYzAuMTksMC42LDAuNTksMS4xOSwwLjU5LDEuNzljMC4yLDAuNzksMC4yLDEuNTgsMC4yLDIuMzhDMjUuMDEsNTAuMzMsMjQuODEsNTEuMTIsMjQuODEsNTEuNzJ6Ii8+JiN4YTsJCQk8L2c+JiN4YTsJCTwvZz4mI3hhOwk8L2c+JiN4YTs8L2c+JiN4YTs8L3N2Zz4=;fontSize=12;" vertex="1" parent="1">
          <mxGeometry x="441" y="301" width="79.45" height="69" as="geometry" />
        </mxCell>
        <mxCell id="1m1OT-jHCipNJAFshmgm-15" style="edgeStyle=orthogonalEdgeStyle;rounded=0;orthogonalLoop=1;jettySize=auto;html=1;entryX=1;entryY=0.5;entryDx=0;entryDy=0;fontSize=12;fillColor=#dae8fc;strokeColor=#6c8ebf;" edge="1" parent="1" source="1m1OT-jHCipNJAFshmgm-10" target="VH2hPDSzOGtYescyWvBb-22">
          <mxGeometry relative="1" as="geometry">
            <Array as="points">
              <mxPoint x="585" y="177" />
            </Array>
          </mxGeometry>
        </mxCell>
        <mxCell id="1m1OT-jHCipNJAFshmgm-16" value="5 article_ids" style="edgeLabel;html=1;align=center;verticalAlign=middle;resizable=0;points=[];fontSize=12;" vertex="1" connectable="0" parent="1m1OT-jHCipNJAFshmgm-15">
          <mxGeometry x="-0.559" y="-1" relative="1" as="geometry">
            <mxPoint as="offset" />
          </mxGeometry>
        </mxCell>
        <mxCell id="1m1OT-jHCipNJAFshmgm-10" value="Model" style="sketch=0;outlineConnect=0;fontColor=#232F3E;gradientColor=none;fillColor=#067F68;strokeColor=none;dashed=0;verticalLabelPosition=bottom;verticalAlign=top;align=center;html=1;fontSize=12;fontStyle=0;aspect=fixed;pointerEvents=1;shape=mxgraph.aws4.sagemaker_model;" vertex="1" parent="1">
          <mxGeometry x="557" y="307.88" width="55.24" height="55.24" as="geometry" />
        </mxCell>
        <mxCell id="1m1OT-jHCipNJAFshmgm-32" style="edgeStyle=orthogonalEdgeStyle;rounded=0;orthogonalLoop=1;jettySize=auto;html=1;fontSize=12;startArrow=none;fillColor=#d5e8d4;strokeColor=#82b366;" edge="1" parent="1" source="1m1OT-jHCipNJAFshmgm-33" target="1m1OT-jHCipNJAFshmgm-9">
          <mxGeometry relative="1" as="geometry">
            <Array as="points">
              <mxPoint x="460" y="490" />
              <mxPoint x="490" y="490" />
            </Array>
          </mxGeometry>
        </mxCell>
        <mxCell id="1m1OT-jHCipNJAFshmgm-34" value="" style="edgeStyle=orthogonalEdgeStyle;rounded=0;orthogonalLoop=1;jettySize=auto;html=1;fontSize=12;endArrow=none;fillColor=#d5e8d4;strokeColor=#82b366;" edge="1" parent="1" source="1m1OT-jHCipNJAFshmgm-9" target="1m1OT-jHCipNJAFshmgm-33">
          <mxGeometry relative="1" as="geometry">
            <mxPoint x="460" y="369.9999999999999" as="sourcePoint" />
            <mxPoint x="490" y="369.9999999999999" as="targetPoint" />
            <Array as="points">
              <mxPoint x="430" y="360" />
              <mxPoint x="430" y="490" />
            </Array>
          </mxGeometry>
        </mxCell>
        <mxCell id="1m1OT-jHCipNJAFshmgm-33" value="update:&lt;br&gt;user_item_matrix&lt;br&gt;model" style="sketch=0;outlineConnect=0;fontColor=#232F3E;gradientColor=none;fillColor=#3F8624;strokeColor=none;dashed=0;verticalLabelPosition=bottom;verticalAlign=top;align=center;html=1;fontSize=12;fontStyle=0;aspect=fixed;pointerEvents=1;shape=mxgraph.aws4.iot_over_the_air_update;" vertex="1" parent="1">
          <mxGeometry x="441.00000000000006" y="470" width="42.1" height="34" as="geometry" />
        </mxCell>
        <mxCell id="1m1OT-jHCipNJAFshmgm-36" style="edgeStyle=orthogonalEdgeStyle;rounded=0;orthogonalLoop=1;jettySize=auto;html=1;fontSize=12;fillColor=#d5e8d4;strokeColor=#82b366;" edge="1" parent="1">
          <mxGeometry relative="1" as="geometry">
            <mxPoint x="520" y="390" as="targetPoint" />
            <mxPoint x="1000" y="358.04999999999995" as="sourcePoint" />
            <Array as="points">
              <mxPoint x="1000" y="430" />
              <mxPoint x="520" y="430" />
              <mxPoint x="520" y="400" />
            </Array>
          </mxGeometry>
        </mxCell>
        <mxCell id="1m1OT-jHCipNJAFshmgm-37" value="user click data" style="edgeLabel;html=1;align=center;verticalAlign=middle;resizable=0;points=[];fontSize=12;" vertex="1" connectable="0" parent="1m1OT-jHCipNJAFshmgm-36">
          <mxGeometry x="0.0462" relative="1" as="geometry">
            <mxPoint as="offset" />
          </mxGeometry>
        </mxCell>
      </root>
    </mxGraphModel>
  </diagram>
</mxfile>
